<svg width="24" height="24" viewBox="0 0 24 24" fill="none" xmlns="http://www.w3.org/2000/svg">
  <path d="M7 4C6.44772 4 6 4.44772 6 5V16.5C6 17.3284 6.67157 18 7.5 18H16.5C17.3284 18 18 17.3284 18 16.5V5C18 4.44772 17.5523 4 17 4H7Z" stroke="currentColor" stroke-width="1.8" stroke-linejoin="round"/>
  <path d="M6 9H18" stroke="currentColor" stroke-width="1.8" stroke-linecap="round"/>
  <path d="M8.2 6.8H15.8" stroke="currentColor" stroke-width="1.8" stroke-linecap="round"/>
  <path d="M8.3 12.2H10.8" stroke="currentColor" stroke-width="1.8" stroke-linecap="round"/>
  <path d="M13.2 12.2H15.7" stroke="currentColor" stroke-width="1.8" stroke-linecap="round"/>
  <path d="M8 18V19.5C8 20.3284 7.32843 21 6.5 21C5.67157 21 5 20.3284 5 19.5V18" stroke="currentColor" stroke-width="1.8" stroke-linecap="round" stroke-linejoin="round"/>
  <path d="M19 18V19.5C19 20.3284 18.3284 21 17.5 21C16.6716 21 16 20.3284 16 19.5V18" stroke="currentColor" stroke-width="1.8" stroke-linecap="round" stroke-linejoin="round"/>
</svg>
