<svg width="282" height="311" viewBox="0 0 282 311" fill="none" xmlns="http://www.w3.org/2000/svg">
<path d="M136.923 7.36481C157.524 6.91373 175.954 11.6236 193.534 22.5634C215.963 36.5828 231.959 58.8803 238.053 84.6188C239.921 92.6673 241.449 105.765 240.41 113.814C237.219 138.514 221.34 167.796 208.324 188.718C193.691 212.264 177.82 235.018 160.778 256.883C158.164 260.26 155.577 263.675 152.928 267.025C149.742 271.053 148.034 273.563 142.807 274.783C142.034 274.95 141.365 275.08 140.57 275.123C137.174 275.313 133.847 274.118 131.345 271.815C128.794 269.44 124.904 264.148 122.63 261.205C118.2 255.52 113.825 249.792 109.508 244.022C85.6582 211.777 40.8142 148.764 39.3202 109.434C38.3352 83.5053 49.2764 57.4285 66.7952 38.603C84.9227 19.1236 110.531 8.32128 136.923 7.36481ZM143.625 178.471C183.512 176.478 214.238 142.538 212.268 102.65C210.297 62.7613 176.376 32.0158 136.486 33.9633C96.5639 35.9125 65.7879 69.8678 67.7602 109.789C69.7322 149.71 103.705 180.466 143.625 178.471Z" fill="#404653"/>
<path d="M86.6971 82.2698C94.2376 82.7938 106.047 82.409 113.856 82.3928L161.873 82.3608L176.131 82.3165C179.108 82.3013 182.706 82.1693 185.602 82.457C195.261 89.2355 193.381 96.9718 193.429 107.208C193.441 109.746 193.779 120.613 192.741 122.38C191.109 123.432 187.734 123.208 185.594 123.319C184.184 120.646 183.522 119.459 181.427 117.307C174.603 110.599 163.777 111.974 158.48 119.855C157.791 120.879 157.16 121.966 156.53 123.029C149.44 123.112 142.349 123.131 135.258 123.084C132.148 123.069 126.353 122.869 123.423 123.175C118.847 112.923 107.51 109.468 98.5321 117.29C97.2126 118.439 95.6109 122.196 94.1364 122.831C91.9996 122.727 88.1034 119.483 87.5346 117.531C86.3309 113.4 86.6931 107.936 86.6779 103.628C86.6426 96.5083 86.6489 89.3888 86.6971 82.2698ZM187.708 96.8448C185.803 94.118 182.776 91.4483 180.463 89.0048C174.502 88.9235 168.54 88.9543 162.58 89.0965C161.836 89.7415 161.448 90.3663 161.515 91.376C161.728 94.5795 161.26 104.074 162.006 106.522C162.842 107.37 165.724 107.231 167.02 107.239L179.468 107.246C181.136 107.243 185.191 107.306 186.656 107.039C188.342 105.51 187.906 99.1678 187.708 96.8448ZM136.501 101.001C140.351 101.02 144.645 101.13 148.459 101.009C149.396 99.6703 148.971 93.9733 148.929 91.9925C144.777 91.9213 140.625 91.9268 136.474 92.009C136.379 94.1125 136.255 98.874 136.501 101.001ZM97.6131 91.8835C96.6644 93.1005 97.1709 99.3488 97.2456 101.009C101.062 101.04 105.654 101.173 109.395 100.942C110.163 99.9815 109.756 93.5135 109.628 91.9895L97.6131 91.8835ZM117.048 101.15C118.107 101.116 119.192 101.097 120.245 100.995C122.909 101.063 126.909 101.227 129.473 100.864L129.457 92.0343C128.782 91.9695 127.049 91.745 126.489 91.879C123.32 91.9568 120.15 91.9948 116.98 91.9925C116.973 95.0453 116.996 98.0978 117.048 101.15Z" fill="#2978C5"/>
<path d="M96.8784 72.8529C100.001 72.6219 106.227 72.8114 109.502 72.8112L136.603 72.8522L160.709 72.828C165.458 72.823 170.235 72.6942 174.966 73.0762C177.027 73.2427 182.127 76.3484 182.426 78.2119C181.61 78.7902 176.44 78.6012 175.062 78.5942C166.165 78.3452 156.229 78.5479 147.253 78.5404L87.2437 78.5204C89.9587 74.6149 92.1547 73.2047 96.8784 72.8529Z" fill="#2978C5"/>
<path d="M170.338 116.827C176.618 116.465 182.001 121.265 182.358 127.545C182.714 133.825 177.91 139.203 171.63 139.555C165.357 139.905 159.987 135.108 159.63 128.836C159.274 122.564 164.067 117.189 170.338 116.827ZM172.121 133.74C174.742 133.21 176.639 130.923 176.674 128.248C176.696 126.5 175.913 124.839 174.549 123.745C173.186 122.651 171.394 122.246 169.693 122.647C166.675 123.359 164.785 126.359 165.448 129.389C166.111 132.418 169.082 134.355 172.121 133.74Z" fill="#2978C5"/>
<path d="M106.109 117.202C112.184 115.581 118.421 119.203 120.023 125.284C121.624 131.364 117.981 137.589 111.896 139.171C105.838 140.746 99.6474 137.123 98.0532 131.071C96.4589 125.018 100.061 118.816 106.109 117.202ZM108.012 133.738C108.876 133.896 109.766 133.851 110.611 133.606C112.892 132.946 114.519 130.933 114.688 128.563C114.816 126.764 114.08 125.012 112.706 123.843C111.332 122.674 109.484 122.229 107.729 122.644C105.118 123.261 103.297 125.624 103.366 128.306C103.434 130.988 105.373 133.254 108.012 133.738Z" fill="#2978C5"/>
<path d="M171.356 267.825C174.265 267.93 177.17 268.122 180.067 268.397C186.399 269.015 226.768 272.572 227.37 283.24C226.18 288.772 211.258 292.202 207.544 292.885C170.718 299.675 126.918 300.837 89.94 295.917C79.67 294.365 63.2747 292.345 54.58 286.127C53.5975 285.425 52.575 283.915 52.5382 282.66C52.5067 281.582 53.135 280.382 53.9295 279.725C63.3652 271.912 97.4447 267.772 109.024 267.97C112.566 271.61 115.924 276.912 119.294 280.617C132.702 295.357 154.075 292.042 164.616 275.84C165.612 274.31 169.948 268.855 171.356 267.825Z" fill="#404653"/>
</svg>
