<svg width="16" height="28" viewBox="0 0 16 28" fill="none" xmlns="http://www.w3.org/2000/svg">
<path d="M7 14C7.4125 14 7.76562 13.8531 8.05937 13.5594C8.35312 13.2656 8.5 12.9125 8.5 12.5C8.5 12.0875 8.35312 11.7344 8.05937 11.4406C7.76562 11.1469 7.4125 11 7 11C6.5875 11 6.23438 11.1469 5.94063 11.4406C5.64688 11.7344 5.5 12.0875 5.5 12.5C5.5 12.9125 5.64688 13.2656 5.94063 13.5594C6.23438 13.8531 6.5875 14 7 14ZM7 19.5125C8.525 18.1125 9.65625 16.8406 10.3938 15.6969C11.1313 14.5531 11.5 13.5375 11.5 12.65C11.5 11.2875 11.0656 10.1719 10.1969 9.30312C9.32812 8.43437 8.2625 8 7 8C5.7375 8 4.67188 8.43437 3.80312 9.30312C2.93437 10.1719 2.5 11.2875 2.5 12.65C2.5 13.5375 2.86875 14.5531 3.60625 15.6969C4.34375 16.8406 5.475 18.1125 7 19.5125ZM7 21.5C4.9875 19.7875 3.48438 18.1969 2.49063 16.7281C1.49688 15.2594 1 13.9 1 12.65C1 10.775 1.60313 9.28125 2.80938 8.16875C4.01562 7.05625 5.4125 6.5 7 6.5C8.5875 6.5 9.98438 7.05625 11.1906 8.16875C12.3969 9.28125 13 10.775 13 12.65C13 13.9 12.5031 15.2594 11.5094 16.7281C10.5156 18.1969 9.0125 19.7875 7 21.5Z" fill="#EF4444"/>
</svg>
