<svg width="182" height="200" viewBox="0 0 182 200" fill="none" xmlns="http://www.w3.org/2000/svg">
<path d="M82.2518 13.9407C82.327 13.9323 82.4022 13.924 82.4773 13.9157C96.5125 12.8433 110.39 17.459 120.986 26.7242C131.686 36.3192 138.158 49.7559 138.989 64.1037C140.416 87.3208 128.313 112.625 113.261 129.597C111.815 131.227 110.489 132.972 109.053 134.592C115.186 138.322 120.303 142.359 121.113 149.934C121.591 154.41 120.671 159.126 117.688 162.63C110.909 170.594 101.132 172.749 91.2217 173.751C83.4563 174.23 76.7289 173.507 69.2555 171.326C50.1304 165.745 45.042 144.538 64.3598 134.758C63.0428 133.337 61.5299 131.229 60.2127 129.685C49.9555 117.721 41.9001 104.37 37.6462 89.1261C32.3708 70.2221 33.0569 48.9305 46.1907 33.1644C55.1587 22.1943 68.1452 15.2714 82.2518 13.9407ZM88.9355 148.058C113.866 128.743 136.335 98.848 135.129 65.8299C135.027 63.0373 135.055 59.8361 134.483 57.1033C129.337 32.4898 108.601 16.2521 83.2359 17.4915C59.9468 19.1323 41.1303 37.6547 38.2899 60.45C37.7956 64.4176 38.0178 69.0044 38.1847 73.024C40.4458 100.815 58.0147 125.475 78.4902 143.162C80.1442 144.61 81.8318 146.019 83.5516 147.388C84.4102 148.063 85.9426 149.113 86.6516 149.77C87.3825 149.226 88.2336 148.62 88.9355 148.058ZM65.5714 151.602C67.8535 162.413 95.7681 161.582 103.352 156.932C105.99 155.485 106.811 154.553 107.84 151.753C105.414 146.686 102.286 147.25 98.7226 144.942C95.471 147.2 90.9976 151.375 87.776 153.204C84.9313 154.819 77.5278 146.336 75.0443 144.854C70.7725 147.416 68.3299 146.298 65.5714 151.602Z" fill="#1B1F0C"/>
<path d="M83.2362 17.4911C108.602 16.2517 129.338 32.4894 134.484 57.1029C135.055 59.8358 135.027 63.0369 135.129 65.8295C136.335 98.8476 113.867 128.742 88.9358 148.058C88.2339 148.62 87.3828 149.225 86.6519 149.769C85.9429 149.113 84.4105 148.063 83.5519 147.388C81.8321 146.019 80.1445 144.61 78.4905 143.162C58.015 125.475 40.4461 100.815 38.185 73.0236C38.0181 69.004 37.7959 64.4172 38.2902 60.4496C41.1306 37.6543 59.9471 19.1319 83.2362 17.4911ZM90.0214 104.604C111.271 102.788 127.025 84.0881 125.208 62.838C123.391 41.5881 104.692 25.8345 83.4419 27.6513C62.1919 29.4682 46.4383 48.1677 48.2553 69.4176C50.0721 90.6675 68.7715 106.421 90.0214 104.604ZM87.2088 133.551C92.3282 133.305 96.2842 128.965 96.0567 123.844C95.8291 118.724 91.5037 114.752 86.3825 114.96C81.2344 115.17 77.2366 119.523 77.4654 124.671C77.6943 129.818 82.0623 133.799 87.2088 133.551Z" fill="#2D74D0"/>
<path d="M86.5433 23.9744C109.818 23.891 128.753 42.6948 128.83 65.97C128.907 89.2452 110.099 108.174 86.8236 108.246C63.5567 108.317 44.6358 89.517 44.5583 66.2503C44.481 42.9834 63.2766 24.0578 86.5433 23.9744ZM90.021 104.604C111.271 102.788 127.025 84.0882 125.208 62.8382C123.391 41.5882 104.692 25.8346 83.4415 27.6514C62.1915 29.4683 46.4379 48.1678 48.2549 69.4177C50.0717 90.6676 68.7711 106.421 90.021 104.604Z" fill="#1B1F0C"/>
<path d="M85.2231 34.2017C90.1668 33.9364 94.1573 34.7248 98.5011 37.2223C103.681 40.2536 107.452 45.2097 108.993 51.0101C112.191 62.9597 105.647 76.3283 93.4159 79.5661C93.3274 83.1135 94.0425 91.8737 92.5573 94.6929C91.7744 96.1791 90.3961 97.4101 88.7911 97.9254C83.8176 98.8764 79.9934 96.3177 79.8187 91.0259C79.6931 87.2135 79.8065 83.3024 79.8321 79.4808C76.5735 78.55 73.737 76.7127 71.2075 74.5024C55.9117 61.1379 64.6098 35.135 85.2231 34.2017ZM88.0732 66.7435C93.2972 66.0489 96.9733 61.2568 96.2904 56.0312C95.6076 50.8057 90.8237 47.1189 85.5965 47.7902C80.353 48.4635 76.6522 53.2659 77.3372 58.5078C78.0222 63.7499 82.8328 67.44 88.0732 66.7435Z" fill="#1B1F0C"/>
<path d="M85.2247 37.6115C96.0559 36.7903 105.505 44.8971 106.341 55.727C107.176 66.5571 99.082 76.0172 88.253 76.8671C77.4039 77.7185 67.9221 69.6056 67.0852 58.7553C66.248 47.9049 74.3734 38.434 85.2247 37.6115ZM88.0735 66.7432C93.2974 66.0486 96.9735 61.2565 96.2907 56.031C95.6078 50.8054 90.8239 47.1186 85.5967 47.7899C80.3532 48.4632 76.6524 53.2656 77.3374 58.5075C78.0224 63.7496 82.833 67.4397 88.0735 66.7432Z" fill="#2D74D0"/>
<path d="M84.9191 44.3799C92.0562 43.3604 98.668 48.3215 99.6846 55.4591C100.701 62.5968 95.7376 69.2065 88.5997 70.2205C81.4656 71.2339 74.8601 66.2735 73.844 59.1398C72.8279 52.0059 77.7856 45.3986 84.9191 44.3799ZM88.0736 66.7433C93.2975 66.0487 96.9736 61.2566 96.2908 56.0311C95.6079 50.8055 90.824 47.1188 85.5968 47.7901C80.3533 48.4633 76.6525 53.2657 77.3375 58.5076C78.0225 63.7497 82.8331 67.4398 88.0736 66.7433Z" fill="#1B1F0C"/>
<path d="M83.3697 80.3857L89.8412 80.4691C89.8888 83.4419 89.9548 86.4212 89.9541 89.3937C89.9537 91.031 89.9708 92.6087 88.8902 93.9204C81.5904 98.8866 83.2546 83.3877 83.3697 80.3857Z" fill="#2D74D0"/>
<path d="M86.382 114.96C91.5033 114.752 95.8286 118.724 96.0563 123.844C96.2838 128.965 92.3278 133.305 87.2083 133.552C82.0618 133.799 77.6938 129.818 77.4649 124.671C77.2362 119.523 81.234 115.17 86.382 114.96ZM87.1875 129.888C90.2805 129.606 92.5871 126.913 92.3905 123.813C92.1941 120.714 89.5661 118.334 86.4624 118.444C84.3768 118.519 82.4962 119.72 81.5519 121.581C80.6078 123.442 80.7489 125.669 81.9205 127.396C83.0922 129.123 85.1093 130.077 87.1875 129.888Z" fill="#1B1F0C"/>
<path d="M66.6064 137.363C67.454 137.863 71.0703 141.361 72.2701 142.345C71.7429 142.525 71.2184 142.713 70.6962 142.907C59.9138 146.944 59.2924 156.56 70.1712 160.833C79.8893 164.557 93.2006 164.981 102.977 161.005C115.236 156.019 112.668 146.406 101.444 142.241C103.404 140.488 104.704 139.016 106.86 137.348C108.728 138.509 110.531 139.774 112.259 141.135C121.555 149.488 118.664 159.825 108.412 165.567C95.4781 172.81 65.2357 172.776 57.2686 158.32C55.574 155.204 55.1905 151.541 56.2023 148.141C57.7282 143.008 62.1086 139.794 66.6064 137.363Z" fill="#2D74D0"/>
</svg>
