<svg width="34" height="34" viewBox="0 0 34 34" fill="none" xmlns="http://www.w3.org/2000/svg">
<path d="M20 26L14 23.9L9.35 25.7C9.01667 25.8333 8.70833 25.7958 8.425 25.5875C8.14167 25.3792 8 25.1 8 24.75V10.75C8 10.5333 8.0625 10.3417 8.1875 10.175C8.3125 10.0083 8.48333 9.88333 8.7 9.8L14 8L20 10.1L24.65 8.3C24.9833 8.16667 25.2917 8.20417 25.575 8.4125C25.8583 8.62083 26 8.9 26 9.25V23.25C26 23.4667 25.9375 23.6583 25.8125 23.825C25.6875 23.9917 25.5167 24.1167 25.3 24.2L20 26ZM19 23.55V11.85L15 10.45V22.15L19 23.55ZM21 23.55L24 22.55V10.7L21 11.85V23.55ZM10 23.3L13 22.15V10.45L10 11.45V23.3ZM21 11.85V23.55V11.85ZM13 10.45V22.15V10.45Z" fill="#9AB8BC"/>
</svg>
