<?xml version="1.0" encoding="UTF-8"?>
<svg version="1.1" xmlns="http://www.w3.org/2000/svg" width="500" height="500">
<path d="M0 0 C0.90186035 0.18224121 1.8037207 0.36448242 2.73291016 0.55224609 C36.62592524 7.50510626 70.44591519 21.94570346 96 46 C96 46.66 96 47.32 96 48 C96.58265625 48.2578125 97.1653125 48.515625 97.765625 48.78125 C100.1802903 50.09834017 101.81740177 51.55088384 103.75 53.5 C104.36359375 54.1084375 104.9771875 54.716875 105.609375 55.34375 C107 57 107 57 107 59 C107.66 59 108.32 59 109 59 C109 59.66 109 60.32 109 61 C109.60231445 61.26425781 110.20462891 61.52851562 110.82519531 61.80078125 C113.10095842 63.05566993 114.21059528 64.15613227 115.796875 66.1875 C116.28027344 66.80367188 116.76367188 67.41984375 117.26171875 68.0546875 C117.75285156 68.69664063 118.24398438 69.33859375 118.75 70 C119.25660156 70.64195313 119.76320313 71.28390625 120.28515625 71.9453125 C124 76.73155323 124 76.73155323 124 79 C124.66 79 125.32 79 126 79 C127.20166016 80.49023438 127.20166016 80.49023438 128.5390625 82.59375 C129.280354 83.75644409 129.280354 83.75644409 130.03662109 84.94262695 C130.82286865 86.20852661 130.82286865 86.20852661 131.625 87.5 C132.43251709 88.79200317 132.43251709 88.79200317 133.25634766 90.11010742 C138.02456241 97.84652518 142.19167188 105.75518849 146 114 C146.53109375 115.12277344 147.0621875 116.24554688 147.609375 117.40234375 C158.82730028 142.18008078 163.43547954 169.19311837 163.3125 196.25 C163.31100952 197.06359985 163.30951904 197.87719971 163.3079834 198.7154541 C163.26842027 210.73496931 162.68383524 222.2478378 160 234 C159.70510084 235.4462223 159.41216927 236.89284704 159.12109375 238.33984375 C154.75468142 259.1945941 145.15877684 277.46023227 135 296 C134.34 296 133.68 296 133 296 C132.75378906 296.87140625 132.50757813 297.7428125 132.25390625 298.640625 C130.91676567 302.2229954 129.24682453 304.71560624 126.9375 307.75 C124.2363396 311.23095067 124.2363396 311.23095067 122 315 C121.34 315 120.68 315 120 315 C119.731875 315.7425 119.46375 316.485 119.1875 317.25 C118.04723249 319.89061949 116.90619694 321.85552844 115 324 C114.34 324 113.68 324 113 324 C112.62681641 324.8353125 112.62681641 324.8353125 112.24609375 325.6875 C107.70786231 334.10954705 99.98739044 341.30643043 93.48046875 348.2734375 C90.97129494 350.95748749 90.97129494 350.95748749 88.80078125 353.8515625 C88.20652344 354.56054688 87.61226563 355.26953125 87 356 C86.34 356 85.68 356 85 356 C85 356.66 85 357.32 85 358 C84.34 358 83.68 358 83 358 C83 358.66 83 359.32 83 360 C82.34 360 81.68 360 81 360 C81 360.66 81 361.32 81 362 C80.34 362 79.68 362 79 362 C79 362.66 79 363.32 79 364 C77.63671875 365.33984375 77.63671875 365.33984375 75.6875 366.9375 C71.42465257 370.5368989 67.5384439 374.4186798 63.68237305 378.44311523 C62.49090704 379.66490714 61.24906136 380.83715331 60 382 C59.34 382 58.68 382 58 382 C58 382.66 58 383.32 58 384 C56.5390625 385.5078125 56.5390625 385.5078125 54.625 387.125 C53.99851562 387.66382813 53.37203125 388.20265625 52.7265625 388.7578125 C51 390 51 390 49 390 C49 390.66 49 391.32 49 392 C47.30725716 393.56432787 45.54430148 395.05328572 43.75 396.5 C42.77546875 397.2940625 41.8009375 398.088125 40.796875 398.90625 C38.55105238 400.58748034 36.5534197 401.88135899 34 403 C34 403.66 34 404.32 34 405 C31.8270767 406.84847311 29.64597332 408.5921349 27.375 410.3125 C26.13214003 411.26605123 24.88994698 412.22047237 23.6484375 413.17578125 C23.03838867 413.64193848 22.42833984 414.1080957 21.79980469 414.58837891 C20.0440813 415.9654262 18.35365924 417.39851253 16.6640625 418.85546875 C14 421 14 421 12 421 C12 421.66 12 422.32 12 423 C10.453125 424.41015625 10.453125 424.41015625 8.25 426.0625 C7.41726563 426.6915625 6.58453125 427.320625 5.7265625 427.96875 C4.82679688 428.6390625 3.92703125 429.309375 3 430 C2.14148438 430.6496875 1.28296875 431.299375 0.3984375 431.96875 C-5.99318057 436.79397153 -12.43423112 441.55319263 -18.875 446.3125 C-19.68372559 446.9113501 -20.49245117 447.5102002 -21.32568359 448.12719727 C-22.85738043 449.25682765 -24.39409863 450.37969137 -25.93652344 451.49462891 C-27.21888177 452.43014967 -28.48608742 453.38730368 -29.72753906 454.37646484 C-31.2578125 455.54296875 -31.2578125 455.54296875 -34 457 C-38.32115914 456.16430413 -41.74234587 453.25490095 -45.25 450.6875 C-45.84989746 450.25381104 -46.44979492 449.82012207 -47.06787109 449.37329102 C-53.43469409 444.74028308 -59.67589246 439.94183583 -65.91015625 435.1328125 C-68.50051144 433.13817207 -71.10751845 431.17257681 -73.74609375 429.2421875 C-74.31054199 428.82783447 -74.87499023 428.41348145 -75.45654297 427.98657227 C-76.95841695 426.88859234 -78.46535492 425.79754859 -79.97265625 424.70703125 C-80.64167969 424.14371094 -81.31070313 423.58039063 -82 423 C-82 422.34 -82 421.68 -82 421 C-82.556875 420.731875 -83.11375 420.46375 -83.6875 420.1875 C-86.21225334 418.89100504 -88.63714484 417.57523677 -91 416 C-91 415.34 -91 414.68 -91 414 C-91.53496094 413.77441406 -92.06992188 413.54882812 -92.62109375 413.31640625 C-95.77062603 411.57356162 -98.36024757 409.28817163 -101.0625 406.9375 C-102.23489362 405.9287762 -103.4080816 404.92097497 -104.58203125 403.9140625 C-105.45335693 403.16624512 -105.45335693 403.16624512 -106.34228516 402.40332031 C-108.60441454 400.48833951 -110.92813879 398.65434397 -113.25 396.8125 C-124.50424274 387.64786081 -134.86513281 377.31984104 -144.99609375 366.94140625 C-146.85173955 364.94864634 -146.85173955 364.94864634 -149 364 C-149 363.34 -149 362.68 -149 362 C-149.66 362 -150.32 362 -151 362 C-151 361.34 -151 360.68 -151 360 C-151.66 360 -152.32 360 -153 360 C-153 359.34 -153 358.68 -153 358 C-153.66 358 -154.32 358 -155 358 C-155 357.34 -155 356.68 -155 356 C-155.66 356 -156.32 356 -157 356 C-158.33984375 354.671875 -158.33984375 354.671875 -159.9375 352.75 C-162.55018573 349.67018128 -165.21607893 346.66115846 -167.96630859 343.703125 C-190 319.99685875 -190 319.99685875 -190 315 C-190.66 315 -191.32 315 -192 315 C-194.96151312 311.2146073 -197.43501893 307.06205957 -200 303 C-200.66177246 301.95585938 -200.66177246 301.95585938 -201.33691406 300.890625 C-207.46428827 291.17639014 -213.16273251 281.42997727 -218 271 C-218.52207031 269.8965625 -219.04414063 268.793125 -219.58203125 267.65625 C-223.78473438 258.37838385 -226.56932627 248.8729303 -229 239 C-229.16951172 238.32275879 -229.33902344 237.64551758 -229.51367188 236.94775391 C-232.6469743 223.74094516 -233.40596463 210.69578014 -233.375 197.1875 C-233.37478851 196.33338531 -233.37457703 195.47927063 -233.37435913 194.59927368 C-233.28128488 156.79216126 -222.81841871 122.08906548 -203 90 C-202.43152344 89.07316406 -201.86304688 88.14632812 -201.27734375 87.19140625 C-193.45081368 74.94479762 -183.97841997 63.74092742 -173.75 53.4375 C-173.20126221 52.88328369 -172.65252441 52.32906738 -172.0871582 51.75805664 C-168.25871006 48 -168.25871006 48 -166 48 C-166 47.34 -166 46.68 -166 46 C-161.90778792 42.37798823 -157.41607968 39.21533294 -153 36 C-152.27184082 35.46810059 -151.54368164 34.93620117 -150.79345703 34.38818359 C-141.11791056 27.38274954 -131.50493715 21.35476755 -120.5390625 16.5859375 C-117.12618206 15.15124717 -117.12618206 15.15124717 -114.63671875 13.53344727 C-109.87261719 10.76276931 -104.58863711 9.28962261 -99.375 7.5625 C-98.16674561 7.16216553 -96.95849121 6.76183105 -95.71362305 6.34936523 C-85.89813717 3.16570031 -76.17102669 0.6935605 -66 -1 C-64.18628906 -1.33451172 -64.18628906 -1.33451172 -62.3359375 -1.67578125 C-41.91635486 -4.88956995 -20.21347712 -4.19221647 0 0 Z M-119 80 C-119 80.66 -119 81.32 -119 82 C-119.7734375 82.3403125 -119.7734375 82.3403125 -120.5625 82.6875 C-123.89547005 84.48217618 -127.14703671 86.49965015 -130 89 C-130 89.66 -130 90.32 -130 91 C-130.66 91 -131.32 91 -132 91 C-132 91.66 -132 92.32 -132 93 C-132.556875 93.226875 -133.11375 93.45375 -133.6875 93.6875 C-136.66159588 95.37550036 -138.72008865 97.46676517 -141 100 C-141 100.66 -141 101.32 -141 102 C-141.66 102 -142.32 102 -143 102 C-144.80112848 104.19228265 -146.47497737 106.3848315 -148.125 108.6875 C-148.86314941 109.71037109 -148.86314941 109.71037109 -149.61621094 110.75390625 C-166.14115918 133.89098407 -178.12978745 161.16947978 -179 190 C-179.02046387 190.6693457 -179.04092773 191.33869141 -179.06201172 192.02832031 C-179.36168385 203.49511338 -178.84711922 214.67499683 -177 226 C-176.8870459 226.70946777 -176.7740918 227.41893555 -176.65771484 228.14990234 C-173.7944325 245.21843822 -166.77334027 261.14665492 -158 276 C-157.20730173 277.39524774 -156.41551552 278.7910144 -155.625 280.1875 C-154.820625 281.5796875 -154.820625 281.5796875 -154 283 C-153.34 283 -152.68 283 -152 283 C-151.77570313 283.69480469 -151.55140625 284.38960937 -151.3203125 285.10546875 C-149.69620407 288.66601415 -147.42305342 291.39027802 -144.875 294.3125 C-144.38652588 294.8799292 -143.89805176 295.4473584 -143.39477539 296.03198242 C-137.54005173 302.85909275 -137.54005173 302.85909275 -131 309 C-130.34 309 -129.68 309 -129 309 C-129 309.66 -129 310.32 -129 311 C-127.07412421 312.63139937 -125.15673283 314.13723225 -123.125 315.625 C-122.29162109 316.25535156 -122.29162109 316.25535156 -121.44140625 316.8984375 C-118.5322565 319.25944906 -118.5322565 319.25944906 -115 320 C-115 320.66 -115 321.32 -115 322 C-101.13741915 329.74728057 -87.74079585 337.05617012 -72.5 341.6875 C-71.83572998 341.89044678 -71.17145996 342.09339355 -70.48706055 342.30249023 C-59.54494666 345.46983976 -48.73016582 346.34965334 -37.39233398 346.31567383 C-35.20049979 346.31251871 -33.01002761 346.33605192 -30.81835938 346.36132812 C-21.1687572 346.4050779 -12.41257978 345.28474057 -3 343 C-1.65989868 342.68736206 -1.65989868 342.68736206 -0.29272461 342.3684082 C13.55650499 338.97212012 25.6535599 333.02025903 38 326 C38.7120459 325.59555664 39.4240918 325.19111328 40.15771484 324.77441406 C41.77381922 323.85312518 43.38725852 322.92716312 45 322 C45 321.34 45 320.68 45 320 C45.69738281 319.773125 46.39476562 319.54625 47.11328125 319.3125 C50.621427 317.71745674 53.30818774 315.50735809 56.1875 313 C56.75919922 312.50508057 57.33089844 312.01016113 57.91992188 311.50024414 C59.62362926 310.01140377 61.31371044 308.50851653 63 307 C63.86238281 306.23558594 64.72476563 305.47117187 65.61328125 304.68359375 C93.18689866 278.73460847 107.76714896 240.73528746 109.12890625 203.47265625 C109.6813089 168.96590396 99.37733644 137.73156313 79 110 C78.39671875 109.14921875 77.7934375 108.2984375 77.171875 107.421875 C75.19318804 104.62340182 75.19318804 104.62340182 73 102 C72.34 102 71.68 102 71 102 C70.773125 101.443125 70.54625 100.88625 70.3125 100.3125 C68.62449964 97.33840412 66.53323483 95.27991135 64 93 C63.34 93 62.68 93 62 93 C62 92.34 62 91.68 62 91 C61.34 91 60.68 91 60 91 C60 90.34 60 89.68 60 89 C58.05624046 87.18371224 58.05624046 87.18371224 55.625 85.375 C54.81289063 84.74335937 54.00078125 84.11171875 53.1640625 83.4609375 C51.15890121 81.81349192 51.15890121 81.81349192 49 82 C49 81.34 49 80.68 49 80 C46.86106456 78.51872575 44.74274694 77.18343035 42.5 75.875 C41.48981812 75.27993652 41.48981812 75.27993652 40.45922852 74.67285156 C19.57971614 62.53477916 -2.57447268 53.67279896 -27 53 C-28.87751953 52.94005859 -28.87751953 52.94005859 -30.79296875 52.87890625 C-61.60792273 52.21796533 -94.4812823 60.60541881 -119 80 Z " fill="#2E9EE7" transform="translate(285,23)"/>
<path d="M0 0 C1.19301224 -0.00983414 2.38602448 -0.01966827 3.6151886 -0.02980042 C4.91559082 -0.02013245 6.21599304 -0.01046448 7.55580139 -0.00050354 C8.94580634 -0.00428858 10.33580752 -0.00979015 11.72579956 -0.01687622 C15.49454193 -0.03082555 19.26282749 -0.01966449 23.03154445 -0.00316501 C26.9792139 0.01070015 30.92685722 0.00422364 34.87454224 0.0007019 C41.50469815 -0.00199938 48.13467295 0.0114672 54.76478577 0.03465271 C62.42370759 0.06125105 70.08232641 0.06301277 77.74127859 0.05126435 C85.11549746 0.04047365 92.48960701 0.04668446 99.86381721 0.06081963 C102.99885717 0.06656935 106.13381686 0.06650471 109.26885796 0.06175423 C112.96338601 0.05697127 116.65758363 0.06714027 120.35204887 0.08870888 C122.34993284 0.0969012 124.34786015 0.0904383 126.3457489 0.08351135 C127.54158096 0.09341599 128.73741302 0.10332062 129.96948242 0.11352539 C131.52218039 0.11717023 131.52218039 0.11717023 133.10624599 0.12088871 C138.39224799 0.80422109 142.26285825 3.2975865 145.92323303 7.06370544 C146.81655334 7.96282654 146.81655334 7.96282654 147.72792053 8.88011169 C149.04823303 10.50120544 149.04823303 10.50120544 149.04823303 12.50120544 C150.03823303 12.83120544 151.02823303 13.16120544 152.04823303 13.50120544 C154.09120178 15.71604919 154.09120178 15.71604919 156.23573303 18.43870544 C157.30887756 19.7825531 157.30887756 19.7825531 158.40370178 21.15354919 C160.04823303 23.50120544 160.04823303 23.50120544 160.04823303 25.50120544 C160.70823303 25.50120544 161.36823303 25.50120544 162.04823303 25.50120544 C163.65457318 27.23512496 165.18576173 29.03929644 166.67323303 30.87620544 C167.49049866 31.87393982 168.30776428 32.87167419 169.14979553 33.89964294 C171.04823303 36.50120544 171.04823303 36.50120544 171.04823303 38.50120544 C171.70823303 38.50120544 172.36823303 38.50120544 173.04823303 38.50120544 C177.04823303 42.97179368 177.04823303 42.97179368 177.04823303 45.50120544 C177.70823303 45.50120544 178.36823303 45.50120544 179.04823303 45.50120544 C186.21955568 52.83233473 188.28510393 60.53788771 188.23573303 70.56370544 C188.18797504 72.87655686 188.1304739 75.18932332 188.04823303 77.50120544 C189.36823303 77.83120544 190.68823303 78.16120544 192.04823303 78.50120544 C192.12925364 80.60474039 192.1874321 82.70916496 192.23573303 84.81370544 C192.27053772 85.98546326 192.30534241 87.15722107 192.34120178 88.36448669 C192.04823303 91.50120544 192.04823303 91.50120544 190.82167053 93.17893982 C188.52928675 94.88812905 187.21875106 94.8484128 184.38026428 94.79417419 C183.4875885 94.78450623 182.59491272 94.77483826 181.67518616 94.76487732 C180.74641663 94.7397406 179.81764709 94.71460388 178.86073303 94.68870544 C177.92036194 94.67517029 176.97999084 94.66163513 176.01112366 94.64768982 C173.68958265 94.6123364 171.3691965 94.56299219 169.04823303 94.50120544 C168.84327209 93.74194763 168.63831116 92.98268982 168.42713928 92.20042419 C168.15772522 91.20655701 167.88831116 90.21268982 167.61073303 89.18870544 C167.34389709 88.20257263 167.07706116 87.21643982 166.80213928 86.20042419 C166.26743878 84.28603018 165.67678765 82.38686929 165.04823303 80.50120544 C164.38823303 80.50120544 163.72823303 80.50120544 163.04823303 80.50120544 C163.04823303 79.84120544 163.04823303 79.18120544 163.04823303 78.50120544 C162.38823303 78.50120544 161.72823303 78.50120544 161.04823303 78.50120544 C161.04823303 77.84120544 161.04823303 77.18120544 161.04823303 76.50120544 C154.35350109 73.84230481 147.96697302 71.93252621 140.88026428 74.19261169 C136.06530193 76.35166611 132.9168192 78.99342718 130.04823303 83.50120544 C129.05823303 87.13120544 128.06823303 90.76120544 127.04823303 94.50120544 C100.64823303 94.50120544 74.24823303 94.50120544 47.04823303 94.50120544 C44.04823303 84.50120544 44.04823303 84.50120544 44.04823303 81.50120544 C43.38823303 81.50120544 42.72823303 81.50120544 42.04823303 81.50120544 C40.93448303 80.35651794 40.93448303 80.35651794 39.79823303 79.18870544 C35.56962531 75.05620244 32.05780375 73.33405326 26.17323303 73.06370544 C20.34312275 73.26534836 15.81073071 74.93552694 11.51307678 78.92698669 C7.23358433 83.75545194 6.03790433 88.29016487 5.04823303 94.50120544 C1.77756737 94.58827436 -1.49280061 94.64161785 -4.76426697 94.68870544 C-5.6930365 94.71384216 -6.62180603 94.73897888 -7.57872009 94.76487732 C-8.47139587 94.77454529 -9.36407166 94.78421326 -10.28379822 94.79417419 C-11.10597839 94.80988464 -11.92815857 94.82559509 -12.7752533 94.84178162 C-15.48194358 94.41824455 -16.34127214 93.68658093 -17.95176697 91.50120544 C-18.35020447 88.43479919 -18.35020447 88.43479919 -18.32676697 84.93870544 C-18.33450134 83.78241638 -18.34223572 82.62612732 -18.35020447 81.43479919 C-18.21872009 80.46671326 -18.08723572 79.49862732 -17.95176697 78.50120544 C-16.46676697 77.51120544 -16.46676697 77.51120544 -14.95176697 76.50120544 C-14.49388682 73.77142069 -14.49388682 73.77142069 -14.56700134 70.52610779 C-14.55689026 69.27075226 -14.54677917 68.01539673 -14.53636169 66.72200012 C-14.53791763 66.04871044 -14.53947357 65.37542076 -14.54107666 64.68172836 C-14.54555256 62.57035179 -14.5315587 60.45981462 -14.51268005 58.348526 C-14.47584351 53.85776648 -14.46219862 49.36709374 -14.45176697 44.87620544 C-14.43966109 39.69127268 -14.41788024 34.50674609 -14.37176514 29.32199478 C-14.35828012 27.25252706 -14.36235216 25.18358375 -14.36717224 23.11408997 C-14.3127618 16.25691068 -14.22908091 10.60900829 -10.95176697 4.50120544 C-7.32004363 0.97143303 -5.03604882 0.00101856 0 0 Z M2.04823303 14.50120544 C-0.32244157 18.05721735 -0.20908126 19.63206726 -0.21739197 23.84886169 C-0.21997009 25.09345154 -0.22254822 26.33804138 -0.22520447 27.62034607 C-0.21747009 28.92165466 -0.20973572 30.22296326 -0.20176697 31.56370544 C-0.20950134 32.86888123 -0.21723572 34.17405701 -0.22520447 35.51878357 C-0.22262634 36.76208435 -0.22004822 38.00538513 -0.21739197 39.28636169 C-0.21513611 40.4298407 -0.21288025 41.5733197 -0.21055603 42.75144958 C-0.23309047 45.6450422 -0.23309047 45.6450422 2.04823303 47.50120544 C4.00405939 47.83750966 4.00405939 47.83750966 6.26673889 47.83592224 C7.57335732 47.87056831 7.57335732 47.87056831 8.90637207 47.90591431 C10.3204409 47.9279467 10.3204409 47.9279467 11.76307678 47.95042419 C12.72975784 47.97216202 13.6964389 47.99389984 14.69241333 48.01629639 C16.73922954 48.06025811 18.78615291 48.09944765 20.83314514 48.13426208 C23.96964335 48.18842758 27.10547378 48.25862552 30.24159241 48.33128357 C32.22790128 48.37194882 34.21422926 48.41169307 36.20057678 48.45042419 C37.14126511 48.47118515 38.08195343 48.49194611 39.05114746 48.51333618 C40.36249413 48.53379753 40.36249413 48.53379753 41.70033264 48.55467224 C42.46929367 48.56862534 43.2382547 48.58257843 44.03051758 48.59695435 C46.25529905 48.58268565 46.25529905 48.58268565 49.04823303 47.50120544 C49.21601152 43.28391621 49.37655337 39.06643226 49.53041077 34.84861755 C49.583762 33.41397196 49.63908593 31.97939831 49.69642639 30.54490662 C49.77853004 28.48232025 49.85352299 26.41957877 49.92713928 24.35667419 C49.97427063 23.11554871 50.02140198 21.87442322 50.06996155 20.59568787 C50.20762993 17.46346485 50.20762993 17.46346485 49.04823303 14.50120544 C42.39140603 14.42531851 35.73469 14.37267483 29.07752991 14.33641052 C26.81153698 14.3212974 24.54557343 14.30080632 22.27967834 14.27488708 C19.02797714 14.23861483 15.77666167 14.22150454 12.52479553 14.20823669 C11.50705048 14.19275284 10.48930542 14.17726898 9.4407196 14.16131592 C8.02948318 14.16097603 8.02948318 14.16097603 6.58973694 14.16062927 C5.75922821 14.15396744 4.92871948 14.1473056 4.07304382 14.14044189 C3.40485626 14.25949387 2.7366687 14.37854584 2.04823303 14.50120544 Z M61.04823303 14.50120544 C59.62319738 17.35127675 59.91843268 19.78740799 59.91542053 22.96995544 C59.91413147 24.26288513 59.91284241 25.55581482 59.91151428 26.88792419 C59.91360901 27.56258728 59.91570374 28.23725037 59.91786194 28.93235779 C59.9232121 30.99314234 59.91791268 33.05370894 59.91151428 35.11448669 C59.91280334 36.40741638 59.91409241 37.70034607 59.91542053 39.03245544 C59.91654846 40.22419373 59.91767639 41.41593201 59.9188385 42.64378357 C59.85189407 45.4471061 59.85189407 45.4471061 61.04823303 47.50120544 C63.79120243 48.44032874 66.33537625 48.62737135 69.21839905 48.63059998 C70.02926468 48.63375214 70.84013031 48.6369043 71.67556763 48.64015198 C72.9757206 48.63711563 72.9757206 48.63711563 74.30213928 48.63401794 C75.64803383 48.63545303 75.64803383 48.63545303 77.02111816 48.63691711 C78.91484141 48.63759668 80.80856701 48.635758 82.70228577 48.63157654 C85.60346186 48.62621887 88.50448358 48.63153232 91.40565491 48.63792419 C93.24615004 48.6372635 95.08664508 48.63598251 96.92713928 48.63401794 C97.79593216 48.63604218 98.66472504 48.63806641 99.55984497 48.64015198 C100.36755844 48.63699982 101.17527191 48.63384766 102.00746155 48.63059998 C102.71709549 48.62980438 103.42672943 48.62900879 104.15786743 48.62818909 C106.27452756 48.56573673 106.27452756 48.56573673 109.04823303 47.50120544 C109.07288696 42.96222839 109.09107092 38.42329001 109.10316467 33.88426208 C109.10820443 32.33900779 109.11503623 30.79375828 109.12367249 29.2485199 C109.13575379 27.03195516 109.14146476 24.81545326 109.14588928 22.59886169 C109.15363121 21.55666222 109.15363121 21.55666222 109.16152954 20.4934082 C109.1617258 18.82891215 109.11012432 17.16455046 109.04823303 15.50120544 C108.05856577 14.29115713 108.05856577 14.29115713 106.14367676 14.38095093 C105.31094742 14.38317154 104.47821808 14.38539215 103.62025452 14.38768005 C102.67935471 14.38775558 101.7384549 14.38783112 100.76904297 14.38790894 C99.74613663 14.39307022 98.72323029 14.39823151 97.66932678 14.40354919 C96.10662804 14.40567162 96.10662804 14.40567162 94.51235962 14.40783691 C91.17012209 14.41345465 87.82795046 14.42601014 84.48573303 14.43870544 C82.22596837 14.44371816 79.96620267 14.44828146 77.70643616 14.45237732 C72.15367913 14.46342983 66.60096079 14.4801852 61.04823303 14.50120544 Z M125.04823303 14.50120544 C124.97417416 19.16425582 124.9196754 23.82696529 124.88343811 28.49046326 C124.86833489 30.07743796 124.84785081 31.66437082 124.82191467 33.25120544 C124.78559708 35.52995617 124.7685228 37.80815603 124.75526428 40.08714294 C124.7320385 41.15441116 124.7320385 41.15441116 124.70834351 42.24324036 C124.67276795 44.45874949 124.67276795 44.45874949 125.04823303 47.50120544 C128.1686177 49.58146189 129.56913034 49.88658207 133.19667053 50.31761169 C134.20213928 50.44200623 135.20760803 50.56640076 136.24354553 50.69456482 C137.29284241 50.81638123 138.34213928 50.93819763 139.42323303 51.06370544 C141.49372219 51.31354789 143.56404161 51.56480183 145.63417053 51.81761169 C146.55246643 51.92532898 147.47076233 52.03304626 148.41688538 52.14402771 C150.98934883 52.49321253 153.50365034 52.99191324 156.04823303 53.50120544 C157.6512693 53.56491913 159.25660975 53.58764758 160.86073303 53.56370544 C161.65092834 53.55468201 162.44112366 53.54565857 163.25526428 53.53636169 C164.14278381 53.51895935 164.14278381 53.51895935 165.04823303 53.50120544 C165.37823303 52.51120544 165.70823303 51.52120544 166.04823303 50.50120544 C164.52123731 48.12948869 162.98988069 46.00460976 161.23573303 43.81370544 C160.53867249 42.90394958 160.53867249 42.90394958 159.82752991 41.97581482 C158.62292638 40.43938364 157.3405057 38.96466771 156.04823303 37.50120544 C155.38823303 37.50120544 154.72823303 37.50120544 154.04823303 37.50120544 C153.77277649 36.90880066 153.49731995 36.31639587 153.21351624 35.70603943 C152.10466027 33.6079715 150.94823326 32.01432906 149.40370178 30.22386169 C148.89129944 29.62767029 148.37889709 29.03147888 147.85096741 28.41722107 C147.05142639 27.49973083 147.05142639 27.49973083 146.23573303 26.56370544 C145.45359436 25.65201599 145.45359436 25.65201599 144.65565491 24.72190857 C143.62095628 23.52444836 142.57400109 22.33745954 141.51454163 21.16184998 C140.20785263 19.68198009 138.98990166 18.1248263 137.78651428 16.55979919 C133.73120199 13.51108367 129.95271085 14.07265884 125.04823303 14.50120544 Z " fill="#309DE5" transform="translate(162.95176696777344,168.49879455566406)"/>
<path d="M0 0 C5.19278958 2.87302003 7.98068537 6.4985583 9.71484375 12.15625 C10.54751282 17.98493348 9.07760898 22.42575458 5.71484375 27.15625 C0.24461481 31.51010569 -4.36470577 32.71151119 -11.28515625 32.15625 C-14.45701963 31.16944806 -16.50232478 30.01147098 -19.28515625 28.15625 C-19.28515625 27.49625 -19.28515625 26.83625 -19.28515625 26.15625 C-19.94515625 26.15625 -20.60515625 26.15625 -21.28515625 26.15625 C-23.93901453 20.24927512 -24.7496754 15.72290552 -23.1484375 9.38671875 C-21.8667747 6.07527325 -20.07781417 4.29945259 -17.28515625 2.15625 C-16.56328125 1.558125 -15.84140625 0.96 -15.09765625 0.34375 C-10.12805295 -1.75452695 -5.08516347 -1.87759882 0 0 Z " fill="#349FE4" transform="translate(196.28515625,246.84375)"/>
<path d="M0 0 C3.55036548 2.69827777 5.29914887 4.28509347 7.125 8.375 C7.87148416 13.9082176 8.07245599 19.38268646 5.4375 24.4375 C2.32100812 28.39628698 -0.86150995 30.63772205 -5.875 31.375 C-11.35052851 31.78824743 -15.04470583 31.01799115 -19.875 28.375 C-24.00119549 24.13728572 -25.64277742 20.39865392 -26.3125 14.5625 C-26.16203746 9.58783233 -24.09903448 6.07363854 -20.875 2.375 C-15.12830195 -2.81744798 -6.85734855 -3.50225098 0 0 Z " fill="#2E9DE5" transform="translate(319.875,247.625)"/>
<path d="M0 0 C0.33 0.66 0.66 1.32 1 2 C1.99 2.33 2.98 2.66 4 3 C6.04296875 5.21484375 6.04296875 5.21484375 8.1875 7.9375 C8.90292969 8.83339844 9.61835938 9.72929687 10.35546875 10.65234375 C12 13 12 13 12 15 C12.66 15 13.32 15 14 15 C15.60634015 16.73391951 17.1375287 18.538091 18.625 20.375 C19.44226563 21.37273437 20.25953125 22.37046875 21.1015625 23.3984375 C23 26 23 26 23 28 C23.66 28 24.32 28 25 28 C29 32.47058824 29 32.47058824 29 35 C29.66 35 30.32 35 31 35 C32.7143618 36.95927063 34.38405168 38.95880212 36 41 C35.505 41.99 35.505 41.99 35 43 C32.03 43 29.06 43 26 43 C26 43.66 26 44.32 26 45 C25.01 45 24.02 45 23 45 C23.33 43.68 23.66 42.36 24 41 C22.35 41 20.7 41 19 41 C19 41.66 19 42.32 19 43 C18.34 43 17.68 43 17 43 C16.91878906 42.27167969 16.83757812 41.54335937 16.75390625 40.79296875 C15.83184078 37.37702671 14.37683861 35.84648667 11.9375 33.3125 C8 29.19507909 8 29.19507909 8 27 C7.34 27 6.68 27 6 27 C4.2734375 25.03125 4.2734375 25.03125 2.375 22.5 C1.74335938 21.6646875 1.11171875 20.829375 0.4609375 19.96875 C-0.02117187 19.3190625 -0.50328125 18.669375 -1 18 C-0.34 17.67 0.32 17.34 1 17 C0.67 16.01 0.34 15.02 0 14 C0.61875 13.855625 1.2375 13.71125 1.875 13.5625 C4.03258322 13.06847775 4.03258322 13.06847775 6 12 C5.02510804 8.99408312 4.46253026 7.34009578 1.875 5.4375 C1.25625 4.963125 0.6375 4.48875 0 4 C0 2.68 0 1.36 0 0 Z " fill="#389FE1" transform="translate(311,179)"/>
<path d="M0 0 C1.18888824 -0.00571014 2.37777649 -0.01142029 3.60269165 -0.01730347 C4.9138797 -0.01842133 6.22506775 -0.01953918 7.57598877 -0.02069092 C8.965547 -0.02531836 10.35510396 -0.03034292 11.74465942 -0.03573608 C15.52581451 -0.04887131 19.30695184 -0.0553075 23.08812618 -0.05974674 C25.4504082 -0.06267633 27.81268534 -0.06678097 30.1749649 -0.07125092 C37.56571199 -0.08493028 44.95644796 -0.09459416 52.34720683 -0.09845281 C60.87887305 -0.10293147 69.41037888 -0.12046852 77.94199634 -0.1494534 C84.53570978 -0.17107667 91.12937813 -0.18115747 97.72312665 -0.18249393 C101.66145567 -0.18354172 105.59963403 -0.18944358 109.53792572 -0.20731354 C113.2446746 -0.22380492 116.95115976 -0.22594467 120.65793228 -0.21717453 C122.66303678 -0.21603821 124.66813257 -0.2297483 126.67318726 -0.243927 C127.8733548 -0.23835785 129.07352234 -0.2327887 130.31005859 -0.22705078 C131.34908703 -0.22851734 132.38811546 -0.2299839 133.45862961 -0.2314949 C136.93285078 0.20648136 139.37702881 1.43038976 142.40899658 3.14044189 C142.40899658 4.13044189 142.40899658 5.12044189 142.40899658 6.14044189 C141.85212158 5.83106689 141.29524658 5.52169189 140.72149658 5.20294189 C136.43627596 3.23405675 132.27062031 3.01450145 127.60235596 3.00672913 C126.44155518 3.00246414 125.28075439 2.99819916 124.08477783 2.99380493 C122.82020752 2.99425812 121.55563721 2.9947113 120.25274658 2.99517822 C118.9005321 2.99218437 117.54831847 2.98878132 116.19610596 2.98500061 C112.53088937 2.97618124 108.86569614 2.97382342 105.20046997 2.97318482 C102.9097062 2.97247336 100.61894834 2.97033727 98.32818604 2.96768761 C90.33428572 2.95844234 82.34040207 2.95435186 74.34649658 2.95513916 C66.89778931 2.95574034 59.44915436 2.94517847 52.00046539 2.9293955 C45.6011852 2.91631976 39.20192865 2.91095525 32.80263519 2.91159457 C28.98235021 2.91184947 25.16212957 2.9090026 21.34185791 2.89841652 C17.75002055 2.88873449 14.15830909 2.88865702 10.56646729 2.89593315 C8.62204377 2.89747688 6.67762026 2.88913372 4.73321533 2.88049316 C3.57241455 2.88468765 2.41161377 2.88888214 1.21563721 2.89320374 C0.20908081 2.89265897 -0.79747559 2.8921142 -1.83453369 2.89155293 C-4.75761888 3.15548605 -6.93704351 3.91777179 -9.59100342 5.14044189 C-7.29076211 0.04705043 -5.42914954 0.01556585 0 0 Z " fill="#56A3CE" transform="translate(162.59100341796875,168.85955810546875)"/>
<path d="M0 0 C0.66 0.33 1.32 0.66 2 1 C1.9278125 1.93457031 1.855625 2.86914062 1.78125 3.83203125 C0.61415599 20.34965345 0.32730626 36.61325858 3 53 C3.1129541 53.70946777 3.2259082 54.41893555 3.34228516 55.14990234 C6.36643254 73.17738334 13.99001254 90.21410452 23.6640625 105.65625 C25 108 25 108 25 110 C25.66 110 26.32 110 27 110 C27.99 111.98 28.98 113.96 30 116 C29.01 116 28.02 116 27 116 C26.67 114.35 26.34 112.7 26 111 C25.01 111 24.02 111 23 111 C22.67 110.01 22.34 109.02 22 108 C18.99152582 106.77479736 18.99152582 106.77479736 16 106 C15.855625 104.80375 15.71125 103.6075 15.5625 102.375 C15.12960657 98.8994842 14.60383744 95.45049966 14 92 C13.01 92 12.02 92 11 92 C10.67 91.01 10.34 90.02 10 89 C9.34 88.34 8.68 87.68 8 87 C7.7265625 85.15234375 7.7265625 85.15234375 7.625 82.9375 C7.23276297 78.4873926 5.89923688 75.18045011 3.98046875 71.18359375 C2.49835949 67.88280062 1.75668671 64.52438767 1 61 C0.82597656 60.30261719 0.65195313 59.60523438 0.47265625 58.88671875 C-2.12379598 48.21662674 -2.15904756 37.42926784 -2.125 26.5 C-2.12886719 25.25863281 -2.13273437 24.01726562 -2.13671875 22.73828125 C-2.11498714 2.11498714 -2.11498714 2.11498714 0 0 Z " fill="#5BA9D2" transform="translate(106,196)"/>
<path d="M0 0 C1.63001953 0.01353516 1.63001953 0.01353516 3.29296875 0.02734375 C4.12441406 0.03894531 4.95585937 0.05054688 5.8125 0.0625 C5.8125 0.3925 5.8125 0.7225 5.8125 1.0625 C5.17183594 1.16046875 4.53117187 1.2584375 3.87109375 1.359375 C-3.14327114 2.57199248 -8.09311547 4.22598085 -13.4375 9.125 C-16.01013457 13.14524614 -16.01013457 13.14524614 -18.1875 23.0625 C-44.5875 23.0625 -70.9875 23.0625 -98.1875 23.0625 C-101.1875 13.0625 -101.1875 13.0625 -101.1875 10.0625 C-101.8475 9.7325 -102.5075 9.4025 -103.1875 9.0625 C-100.8125 9.375 -100.8125 9.375 -98.1875 10.0625 C-96.1875 13.0625 -96.1875 13.0625 -96.1875 21.0625 C-71.1075 21.0625 -46.0275 21.0625 -20.1875 21.0625 C-19.8575 18.0925 -19.5275 15.1225 -19.1875 12.0625 C-18.8575 11.4025 -18.5275 10.7425 -18.1875 10.0625 C-17.5275 10.0625 -16.8675 10.0625 -16.1875 10.0625 C-16.1875 9.4025 -16.1875 8.7425 -16.1875 8.0625 C-15.5275 8.0625 -14.8675 8.0625 -14.1875 8.0625 C-14.1875 6.7425 -14.1875 5.4225 -14.1875 4.0625 C-13.548125 3.93875 -12.90875 3.815 -12.25 3.6875 C-11.569375 3.48125 -10.88875 3.275 -10.1875 3.0625 C-9.8575 2.4025 -9.5275 1.7425 -9.1875 1.0625 C-5.90230525 -0.03256492 -3.45086585 -0.03710608 0 0 Z " fill="#68B1DA" transform="translate(308.1875,239.9375)"/>
<path d="M0 0 C1.41112312 0.03014442 1.41112312 0.03014442 2.85075378 0.06089783 C4.36962944 0.10145042 4.36962944 0.10145042 5.91918945 0.14282227 C6.95815872 0.16643326 7.99712799 0.19004425 9.06758118 0.21437073 C12.38935004 0.29100641 15.71088573 0.37503148 19.0324707 0.45922852 C21.2831103 0.51244928 23.5337613 0.56518967 25.78442383 0.61743164 C31.30475071 0.74662145 36.82490411 0.88188027 42.3449707 1.02172852 C42.3449707 1.35172852 42.3449707 1.68172852 42.3449707 2.02172852 C27.1649707 2.35172852 11.9849707 2.68172852 -3.6550293 3.02172852 C-5.05804062 5.82775117 -4.7847835 8.17191219 -4.7878418 11.30688477 C-4.78977539 13.18537109 -4.78977539 13.18537109 -4.79174805 15.10180664 C-4.78788086 16.41600586 -4.78401367 17.73020508 -4.7800293 19.08422852 C-4.78389648 20.40229492 -4.78776367 21.72036133 -4.79174805 23.07836914 C-4.79045898 24.3294043 -4.78916992 25.58043945 -4.7878418 26.86938477 C-4.78671387 28.02446533 -4.78558594 29.1795459 -4.78442383 30.36962891 C-4.95646789 32.94422602 -4.95646789 32.94422602 -3.6550293 34.02172852 C-2.18252285 34.14405496 -0.70437218 34.19947412 0.77294922 34.22705078 C2.18429893 34.25696861 2.18429893 34.25696861 3.62416077 34.28749084 C4.64706711 34.30420334 5.66997345 34.32091583 6.72387695 34.33813477 C8.2865757 34.36930641 8.2865757 34.36930641 9.88084412 34.40110779 C13.22298317 34.46671909 16.56520356 34.52554182 19.9074707 34.58422852 C22.16724488 34.62740273 24.42701071 34.67101665 26.68676758 34.71508789 C32.23941967 34.82324319 37.79212961 34.92223041 43.3449707 35.02172852 C43.3449707 27.10172852 43.3449707 19.18172852 43.3449707 11.02172852 C43.6749707 11.02172852 44.0049707 11.02172852 44.3449707 11.02172852 C44.6749707 19.60172852 45.0049707 28.18172852 45.3449707 37.02172852 C42.94575769 38.22133502 41.42258129 38.16114142 38.7434082 38.18286133 C37.78901855 38.19246887 36.83462891 38.20207642 35.85131836 38.2119751 C34.81797363 38.21622498 33.78462891 38.22047485 32.7199707 38.22485352 C31.13321533 38.23340363 31.13321533 38.23340363 29.5144043 38.24212646 C27.27499393 38.2515826 25.0355696 38.25811287 22.79614258 38.26196289 C19.3590494 38.27168868 15.92254895 38.3027149 12.4855957 38.33422852 C10.31372427 38.3407563 8.14184854 38.34600765 5.9699707 38.34985352 C4.93662598 38.36220032 3.90328125 38.37454712 2.83862305 38.38726807 C1.8842334 38.38426697 0.92984375 38.38126587 -0.0534668 38.37817383 C-0.89570801 38.38181946 -1.73794922 38.38546509 -2.60571289 38.38922119 C-3.2819873 38.26794861 -3.95826172 38.14667603 -4.6550293 38.02172852 C-7.09278199 34.36509948 -7.00189474 31.52757423 -7.0690918 27.29125977 C-7.08845795 26.54083908 -7.1078241 25.7904184 -7.1277771 25.01725769 C-7.18750389 22.62302985 -7.23392994 20.22875374 -7.2800293 17.83422852 C-7.3182155 16.20985872 -7.35726761 14.58550903 -7.3972168 12.96118164 C-7.49319954 8.98152747 -7.57725566 5.00177851 -7.6550293 1.02172852 C-4.73475811 0.04830479 -3.02585483 -0.0730099 0 0 Z " fill="#6EBAD7" transform="translate(168.655029296875,180.978271484375)"/>
<path d="M0 0 C0.33 0 0.66 0 1 0 C1 11.22 1 22.44 1 34 C-0.32 32.68 -1.64 31.36 -3 30 C-3.66 30 -4.32 30 -5 30 C-5.495 32.475 -5.495 32.475 -6 35 C-8.45286296 31.32070555 -8.23228878 29.52622093 -8.1953125 25.14453125 C-8.1924826 24.48289474 -8.18965271 23.82125824 -8.18673706 23.13957214 C-8.17555918 21.03036263 -8.15045981 18.92158075 -8.125 16.8125 C-8.11496707 15.38086552 -8.10584176 13.94922436 -8.09765625 12.51757812 C-8.07562795 9.01158023 -8.04111485 5.50583187 -8 2 C-7.34 1.67 -6.68 1.34 -6 1 C-6 1.99 -6 2.98 -6 4 C-4.68 4 -3.36 4 -2 4 C-1.34 2.68 -0.68 1.36 0 0 Z " fill="#3197D6" transform="translate(221,182)"/>
<path d="M0 0 C0.33 0 0.66 0 1 0 C1.46512062 2.1860669 1.92158267 4.37397574 2.375 6.5625 C2.75785156 8.38974609 2.75785156 8.38974609 3.1484375 10.25390625 C5.53029669 22.98862726 6.37121199 35.33270274 6.3125 48.25 C6.31100952 49.06359985 6.30951904 49.87719971 6.3079834 50.7154541 C6.26847109 62.71953067 5.73710529 74.26994332 3 86 C2.82355957 86.79390137 2.64711914 87.58780273 2.46533203 88.40576172 C1.37942452 93.28900278 0.22349886 98.14947916 -1 103 C-1.33 103 -1.66 103 -2 103 C-2 97.06 -2 91.12 -2 85 C-1.34 85 -0.68 85 0 85 C0.0501123 84.35973877 0.10022461 83.71947754 0.15185547 83.05981445 C0.38475207 80.14332584 0.62975601 77.22797522 0.875 74.3125 C0.95363281 73.30509766 1.03226562 72.29769531 1.11328125 71.25976562 C1.19707031 70.28330078 1.28085937 69.30683594 1.3671875 68.30078125 C1.44050293 67.40528564 1.51381836 66.50979004 1.58935547 65.5871582 C2.02773111 62.82528744 2.9553 60.58414773 4 58 C4.16324948 55.24966132 4.23498063 52.61888088 4.1875 49.875 C4.18685547 49.15957031 4.18621094 48.44414062 4.18554688 47.70703125 C4.15897902 44.54840896 4.00523113 42.01569338 3 39 C2.8187602 36.14331548 2.67591998 33.29678585 2.5625 30.4375 C2.29343236 24.56508415 1.76113415 19.05836941 0.41015625 13.32421875 C-0.36746407 8.91770358 -0.15253127 4.4573027 0 0 Z " fill="#57A4D0" transform="translate(442,171)"/>
<path d="M0 0 C0.66 0 1.32 0 2 0 C1.59521787 5.00651583 1.08036739 9.90247206 0 14.8125 C-2.9370074 29.05965068 -2.11759913 43.8484598 -2.0625 58.3125 C-2.05747539 60.61393132 -2.05291419 62.9153637 -2.04882812 65.21679688 C-2.03789765 70.81122136 -2.02123558 76.40560563 -2 82 C-2.33 82 -2.66 82 -3 82 C-4.94250216 71.00776254 -5.39569173 60.32113761 -5.375 49.1875 C-5.37611786 48.33803802 -5.37723572 47.48857605 -5.37838745 46.6133728 C-5.3681371 30.74153591 -3.94099249 15.4287994 0 0 Z " fill="#54A4D2" transform="translate(57,171)"/>
<path d="M0 0 C1.99915693 0.33835289 3.99881481 0.67385748 6 1 C6 1.33 6 1.66 6 2 C1.05 2 -3.9 2 -9 2 C-9 1.34 -9 0.68 -9 0 C-27.81 0 -46.62 0 -66 0 C-66 -0.33 -66 -0.66 -66 -1 C-44.27056718 -4.88769405 -21.6098914 -4.17070904 0 0 Z " fill="#61B0D9" transform="translate(285,23)"/>
<path d="M0 0 C1.32837891 0.21221191 1.32837891 0.21221191 2.68359375 0.42871094 C11.78116347 1.77535952 20.64164829 2.31471706 29.83398438 2.26074219 C31.99898251 2.25000505 34.16315139 2.26072537 36.328125 2.2734375 C44.76314487 2.27868969 52.80057872 1.64735659 61.12109375 0.23339844 C62.07113281 0.15637695 63.02117187 0.07935547 64 0 C64.99 0.99 64.99 0.99 66 2 C63.19693982 3.40153009 60.48056201 3.53517344 57.375 3.9375 C53.50258063 4.45486777 49.83154682 4.95198439 46.125 6.1875 C38.84136351 8.22310146 29.23847631 6.80961908 22 5 C19.75203467 4.8255889 17.50150204 4.68294061 15.25 4.5625 C9.90567242 4.21662494 5.12090238 3.53627071 0 2 C0 1.34 0 0.68 0 0 Z " fill="#3895CC" transform="translate(218,366)"/>
<path d="M0 0 C2 3 2 3 1.4375 6.375 C-2.89705772 21.30213316 -10.28831872 34.6051069 -18 48 C-18.66 48 -19.32 48 -20 48 C-20.268125 48.94875 -20.53625 49.8975 -20.8125 50.875 C-22 54 -22 54 -25 56 C-25.1875 53.125 -25.1875 53.125 -25 50 C-24.01 49.34 -23.02 48.68 -22 48 C-20.78715124 44.94570927 -20.78715124 44.94570927 -20 42 C-19.01 42 -18.02 42 -17 42 C-16.566875 40.88625 -16.566875 40.88625 -16.125 39.75 C-15.17697356 37.43260203 -14.15154089 35.22082885 -13 33 C-12.34 33 -11.68 33 -11 33 C-11.12375 31.700625 -11.12375 31.700625 -11.25 30.375 C-11 27 -11 27 -9.0625 24.125 C-6.47065889 20.19796801 -6.31997065 17.63957439 -6 13 C-4.68 12.67 -3.36 12.34 -2 12 C-2 9.36 -2 6.72 -2 4 C-1.34 4 -0.68 4 0 4 C0 2.68 0 1.36 0 0 Z " fill="#6FB0D4" transform="translate(438,271)"/>
<path d="M0 0 C0.99 0.33 1.98 0.66 3 1 C1.4744094 4.65141356 -0.72480909 6.90118112 -3.5625 9.625 C-6.69042054 12.51070681 -6.69042054 12.51070681 -9 16 C-9.66 16 -10.32 16 -11 16 C-11 16.66 -11 17.32 -11 18 C-11.66 18 -12.32 18 -13 18 C-13 18.66 -13 19.32 -13 20 C-13.66 20 -14.32 20 -15 20 C-15 20.66 -15 21.32 -15 22 C-15.66 22 -16.32 22 -17 22 C-17 22.66 -17 23.32 -17 24 C-18.50390625 25.515625 -18.50390625 25.515625 -20.5625 27.25 C-21.64724609 28.17232422 -21.64724609 28.17232422 -22.75390625 29.11328125 C-23.49511719 29.73589844 -24.23632812 30.35851562 -25 31 C-26.33427675 32.14473463 -27.66769833 33.29046728 -29 34.4375 C-30.485 35.7059375 -30.485 35.7059375 -32 37 C-31.62890625 35.078125 -31.62890625 35.078125 -31 33 C-28.9375 31.75 -28.9375 31.75 -27 31 C-27.33 30.01 -27.66 29.02 -28 28 C-26.75 26.5 -26.75 26.5 -25 25 C-23.68 25 -22.36 25 -21 25 C-21 23.68 -21 22.36 -21 21 C-19.09316578 18.548356 -18.02015057 18.00671686 -15 17 C-14.525625 16.154375 -14.05125 15.30875 -13.5625 14.4375 C-13.046875 13.633125 -12.53125 12.82875 -12 12 C-10.68 12 -9.36 12 -8 12 C-7.34 10.02 -6.68 8.04 -6 6 C-5.34 6 -4.68 6 -4 6 C-4 5.01 -4 4.02 -4 3 C-2.1875 1.25 -2.1875 1.25 0 0 Z " fill="#5EACD7" transform="translate(381,363)"/>
<path d="M0 0 C1.37562854 1.28965176 2.70766393 2.62689293 4 4 C4 4.66 4 5.32 4 6 C4.66 6 5.32 6 6 6 C10 10.47058824 10 10.47058824 10 13 C10.66 13 11.32 13 12 13 C13.7143618 14.95927063 15.38405168 16.95880212 17 19 C16.67 19.66 16.34 20.32 16 21 C13.03 21 10.06 21 7 21 C7 21.66 7 22.32 7 23 C6.01 23 5.02 23 4 23 C4.33 21.68 4.66 20.36 5 19 C3.35 19 1.7 19 0 19 C0 19.66 0 20.32 0 21 C-0.66 21 -1.32 21 -2 21 C-2.33 19.02 -2.66 17.04 -3 15 C-0.69 15.66 1.62 16.32 4 17 C5.1490712 15.0745356 5.1490712 15.0745356 5 13 C5 11.33333333 5 9.66666667 5 8 C3.68 7.67 2.36 7.34 1 7 C0.67 4.69 0.34 2.38 0 0 Z " fill="#41A3E0" transform="translate(330,201)"/>
<path d="M0 0 C0.77472656 0.00451172 1.54945313 0.00902344 2.34765625 0.01367188 C4.23180524 0.02530242 6.11591365 0.04323094 8 0.0625 C8 0.3925 8 0.7225 8 1.0625 C7.01902344 1.17207031 6.03804687 1.28164062 5.02734375 1.39453125 C-18.76824593 3.92051935 -18.76824593 3.92051935 -40.7421875 12.71875 C-43 14.0625 -43 14.0625 -46 14.0625 C-46 13.0725 -46 12.0825 -46 11.0625 C-44.68 11.0625 -43.36 11.0625 -42 11.0625 C-42 10.4025 -42 9.7425 -42 9.0625 C-40.35 9.0625 -38.7 9.0625 -37 9.0625 C-37 8.4025 -37 7.7425 -37 7.0625 C-35.35 7.0625 -33.7 7.0625 -32 7.0625 C-32 6.4025 -32 5.7425 -32 5.0625 C-31.12988281 4.88074219 -31.12988281 4.88074219 -30.2421875 4.6953125 C-26.72865509 3.94158443 -23.33681045 3.17935261 -19.9375 2 C-13.43511179 -0.07523028 -6.75977963 -0.07615003 0 0 Z " fill="#6AB4D8" transform="translate(234,75.9375)"/>
<path d="M0 0 C24.255 0.495 24.255 0.495 49 1 C49 1.33 49 1.66 49 2 C33.49 2 17.98 2 2 2 C2 12.89 2 23.78 2 35 C5.3 35 8.6 35 12 35 C11.67 35.66 11.34 36.32 11 37 C9.35425434 37.02688151 7.70838587 37.04634123 6.0625 37.0625 C5.14597656 37.07410156 4.22945312 37.08570313 3.28515625 37.09765625 C1 37 1 37 0 36 C-0.08854347 33.3339846 -0.115319 30.69330601 -0.09765625 28.02734375 C-0.09664917 27.32065552 -0.09564209 26.61396729 -0.09460449 25.88586426 C-0.08935745 23.23639309 -0.07539629 20.58694498 -0.0625 17.9375 C-0.041875 12.018125 -0.02125 6.09875 0 0 Z " fill="#8EC7E1" transform="translate(222,181)"/>
<path d="M0 0 C0.33 0 0.66 0 1 0 C1.38935354 15.63903369 -1.26698561 29.86860673 -5 45 C-5.33 45 -5.66 45 -6 45 C-6 39.06 -6 33.12 -6 27 C-5.34 27 -4.68 27 -4 27 C-3.9498877 26.35973877 -3.89977539 25.71947754 -3.84814453 25.05981445 C-3.61524793 22.14332584 -3.37024399 19.22797522 -3.125 16.3125 C-3.04636719 15.30509766 -2.96773438 14.29769531 -2.88671875 13.25976562 C-2.80292969 12.28330078 -2.71914063 11.30683594 -2.6328125 10.30078125 C-2.55949707 9.40528564 -2.48618164 8.50979004 -2.41064453 7.5871582 C-1.97283463 4.82885174 -1.12791138 2.54683192 0 0 Z " fill="#52A6D4" transform="translate(446,229)"/>
<path d="M0 0 C0.84119973 2.39957614 1.11193544 3.64922558 0.328125 6.10546875 C-0.02765625 6.79253906 -0.3834375 7.47960937 -0.75 8.1875 C-1.09546875 8.88230469 -1.4409375 9.57710938 -1.796875 10.29296875 C-3 12 -3 12 -6 13 C-6.2165625 13.8971875 -6.2165625 13.8971875 -6.4375 14.8125 C-7.2067123 17.80388117 -8.75632432 18.87760409 -11 21 C-12.56848843 22.78510831 -14.10145744 24.59706608 -15.6328125 26.4140625 C-16.70342332 27.65597105 -17.84057247 28.84057247 -19 30 C-21.125 29.625 -21.125 29.625 -23 29 C-22.57332031 28.63132812 -22.14664062 28.26265625 -21.70703125 27.8828125 C-13.07296874 19.87182667 -6.50706494 9.7605974 0 0 Z " fill="#5AACD6" transform="translate(372,299)"/>
<path d="M0 0 C0.99 0.33 1.98 0.66 3 1 C2.731875 1.47566406 2.46375 1.95132813 2.1875 2.44140625 C1.32676636 3.97883509 0.47207193 5.51965005 -0.37890625 7.0625 C-1.54322674 9.17230484 -2.71908909 11.27575559 -3.90234375 13.375 C-8.86175924 22.30146731 -12.65494417 31.35762317 -16 41 C-16.33 41 -16.66 41 -17 41 C-17.33266291 34.79029227 -16.45029331 30.71735105 -14 25 C-13.34 25 -12.68 25 -12 25 C-11.7525 23.989375 -11.505 22.97875 -11.25 21.9375 C-10.45963109 19.1082084 -9.40412375 16.81766018 -7.875 14.3125 C-5.67160119 11.05422001 -5.67160119 11.05422001 -6 7 C-4.35 6.67 -2.7 6.34 -1 6 C-1.020625 5.195625 -1.04125 4.39125 -1.0625 3.5625 C-1 1 -1 1 0 0 Z " fill="#58A5D2" transform="translate(129,138)"/>
<path d="M0 0 C0.33 0.66 0.66 1.32 1 2 C1.99 2.33 2.98 2.66 4 3 C5.82421875 5.06640625 5.82421875 5.06640625 7.6875 7.5625 C8.31011719 8.38878906 8.93273437 9.21507812 9.57421875 10.06640625 C10.04472656 10.70449219 10.51523437 11.34257812 11 12 C10.34 12.66 9.68 13.32 9 14 C8.29289322 15.64991582 7.62056011 17.31562256 7 19 C6.34 19 5.68 19 5 19 C5 20.32 5 21.64 5 23 C5.99 23.33 6.98 23.66 8 24 C8 24.99 8 25.98 8 27 C7.34 27 6.68 27 6 27 C4.2734375 25.03125 4.2734375 25.03125 2.375 22.5 C1.74335938 21.6646875 1.11171875 20.829375 0.4609375 19.96875 C-0.02117187 19.3190625 -0.50328125 18.669375 -1 18 C-0.34 17.67 0.32 17.34 1 17 C0.67 16.01 0.34 15.02 0 14 C0.61875 13.855625 1.2375 13.71125 1.875 13.5625 C4.03258322 13.06847775 4.03258322 13.06847775 6 12 C5.02510804 8.99408312 4.46253026 7.34009578 1.875 5.4375 C1.25625 4.963125 0.6375 4.48875 0 4 C0 2.68 0 1.36 0 0 Z " fill="#50A7DC" transform="translate(311,179)"/>
<path d="M0 0 C0.66 0.33 1.32 0.66 2 1 C1.34 15.52 0.68 30.04 0 45 C-2.06396531 40.87206938 -2.2468761 39.14055762 -2.23046875 34.65234375 C-2.22853516 33.40646484 -2.22660156 32.16058594 -2.22460938 30.87695312 C-2.21236328 29.57693359 -2.20011719 28.27691406 -2.1875 26.9375 C-2.18685547 25.66455078 -2.18621094 24.39160156 -2.18554688 23.08007812 C-2.08851345 2.08851345 -2.08851345 2.08851345 0 0 Z " fill="#4DA3D4" transform="translate(106,196)"/>
<path d="M0 0 C1.41112312 0.03014442 1.41112312 0.03014442 2.85075378 0.06089783 C4.36962944 0.10145042 4.36962944 0.10145042 5.91918945 0.14282227 C6.95815872 0.16643326 7.99712799 0.19004425 9.06758118 0.21437073 C12.38935004 0.29100641 15.71088573 0.37503148 19.0324707 0.45922852 C21.2831103 0.51244928 23.5337613 0.56518967 25.78442383 0.61743164 C31.30475071 0.74662145 36.82490411 0.88188027 42.3449707 1.02172852 C42.3449707 1.35172852 42.3449707 1.68172852 42.3449707 2.02172852 C27.1649707 2.35172852 11.9849707 2.68172852 -3.6550293 3.02172852 C-5.04767984 5.8070296 -4.76702031 8.08878714 -4.75268555 11.20141602 C-4.74946289 12.44020508 -4.74624023 13.67899414 -4.74291992 14.95532227 C-4.73454102 16.25598633 -4.72616211 17.55665039 -4.7175293 18.89672852 C-4.71301758 20.1896582 -4.70850586 21.48258789 -4.70385742 22.81469727 C-4.69511726 25.21949163 -4.68433197 27.62428 -4.67089844 30.02905273 C-4.65853865 32.35991789 -4.6550293 34.69083059 -4.6550293 37.02172852 C-7.52271476 34.15404305 -7.00851074 31.23520546 -7.0690918 27.38891602 C-7.08845795 26.63708038 -7.1078241 25.88524475 -7.1277771 25.11062622 C-7.18762077 22.70610953 -7.23397656 20.30154508 -7.2800293 17.89672852 C-7.31820475 16.26780124 -7.35725623 14.63889423 -7.3972168 13.01000977 C-7.49332596 9.01408046 -7.57733871 5.01805665 -7.6550293 1.02172852 C-4.73475811 0.04830479 -3.02585483 -0.0730099 0 0 Z " fill="#80BCD9" transform="translate(168.655029296875,180.978271484375)"/>
<path d="M0 0 C0.33 0 0.66 0 1 0 C1.49940808 6.11774896 0.24900602 9.02495953 -3 14 C-3.66 14 -4.32 14 -5 14 C-5.33 16.97 -5.66 19.94 -6 23 C-6.66 23 -7.32 23 -8 23 C-8 23.99 -8 24.98 -8 26 C-9.98 26.66 -11.96 27.32 -14 28 C-12.58481442 24.9992992 -11.16757567 21.99957233 -9.75 19 C-9.35425781 18.16082031 -8.95851563 17.32164062 -8.55078125 16.45703125 C-1.45840993 1.45840993 -1.45840993 1.45840993 0 0 Z " fill="#57A8D9" transform="translate(387,270)"/>
<path d="M0 0 C6.96003447 -0.02526838 13.9200572 -0.04283222 20.88012695 -0.05493164 C23.24992312 -0.05997341 25.61971615 -0.06680665 27.98950195 -0.07543945 C31.38754039 -0.0875119 34.78553785 -0.09322971 38.18359375 -0.09765625 C39.25024765 -0.10281754 40.31690155 -0.10797882 41.4158783 -0.11329651 C42.88729027 -0.11340981 42.88729027 -0.11340981 44.38842773 -0.11352539 C45.25668686 -0.115746 46.12494598 -0.11796661 47.01951599 -0.12025452 C49 0 49 0 50 1 C50.08847743 3.52094076 50.11527301 6.01430893 50.09765625 8.53515625 C50.0962413 9.28840683 50.09482635 10.04165741 50.09336853 10.81773376 C50.08775376 13.2326956 50.07519883 15.64756601 50.0625 18.0625 C50.0574869 19.69596221 50.05292366 21.32942586 50.04882812 22.96289062 C50.03777954 26.97529585 50.02050506 30.98763241 50 35 C49.67 35 49.34 35 49 35 C49 24.44 49 13.88 49 3 C48.34 3 47.68 3 47 3 C47 2.34 47 1.68 47 1 C31.49 1 15.98 1 0 1 C0 0.67 0 0.34 0 0 Z " fill="#3E8FBF" transform="translate(224,181)"/>
<path d="M0 0 C2.03833424 1.2739589 4.03852126 2.61061923 6 4 C6 4.66 6 5.32 6 6 C6.58265625 6.2578125 7.1653125 6.515625 7.765625 6.78125 C10.1802903 8.09834017 11.81740177 9.55088384 13.75 11.5 C14.36359375 12.1084375 14.9771875 12.716875 15.609375 13.34375 C17 15 17 15 17 17 C17.66 17 18.32 17 19 17 C19 17.66 19 18.32 19 19 C19.86625 19.309375 19.86625 19.309375 20.75 19.625 C23.81410544 21.49750888 25.15539968 23.96958519 27 27 C25.02 26.67 23.04 26.34 21 26 C20.67 25.01 20.34 24.02 20 23 C19.34 22.67 18.68 22.34 18 22 C17.67 21.01 17.34 20.02 17 19 C16.34 18.67 15.68 18.34 15 18 C15 17.34 15 16.68 15 16 C14.01 16 13.02 16 12 16 C11.6596875 14.576875 11.6596875 14.576875 11.3125 13.125 C10.30916286 9.80676612 10.30916286 9.80676612 7.375 8.625 C6.59125 8.41875 5.8075 8.2125 5 8 C5 7.01 5 6.02 5 5 C3.35 4.67 1.7 4.34 0 4 C0 2.68 0 1.36 0 0 Z " fill="#63AED7" transform="translate(375,65)"/>
<path d="M0 0 C1.984375 1.26953125 1.984375 1.26953125 4 3 C4.25 6.6875 4.25 6.6875 4 10 C4.66 10 5.32 10 6 10 C6.12117188 10.79664063 6.24234375 11.59328125 6.3671875 12.4140625 C7.22151376 17.81603316 8.23047999 22.81783427 10 28 C10.125 30.875 10.125 30.875 10 33 C7.09640104 30.09640104 6.2628948 26.50734776 5 22.6875 C4.5985376 21.48311279 4.5985376 21.48311279 4.18896484 20.25439453 C2.03046374 13.55490839 0.71868582 7.01338231 0 0 Z " fill="#5AABD5" transform="translate(55,254)"/>
<path d="M0 0 C2.61825774 2.1766865 3.87950822 3.37184798 4.53125 6.76953125 C4.46331789 13.38442003 4.14822892 17.73062813 0 23 C-5.23347283 26.92510462 -9.57802737 27.12349947 -16 27 C-16 26.67 -16 26.34 -16 26 C-14.515 25.6596875 -14.515 25.6596875 -13 25.3125 C-7.33583456 23.69746301 -2.28583391 20.92875086 1 16 C1.54318537 10.65100508 1.10559488 5.25157567 0 0 Z " fill="#60A7D0" transform="translate(323,252)"/>
<path d="M0 0 C4.56857227 0.53747909 7.46492526 2.06664011 11 5 C14.38691981 9.79379419 15.66899722 14.09052453 15 20 C14 22.9375 14 22.9375 13 25 C12.67 25 12.34 25 12 25 C11.92652344 24.06027344 11.92652344 24.06027344 11.8515625 23.1015625 C11.77679688 22.28429687 11.70203125 21.46703125 11.625 20.625 C11.55539063 19.81289063 11.48578125 19.00078125 11.4140625 18.1640625 C11.17107412 15.79665809 11.17107412 15.79665809 9 14 C8.875 10.375 8.875 10.375 9 7 C8.2575 6.773125 7.515 6.54625 6.75 6.3125 C3.48860409 4.75592468 2.07105025 2.91481146 0 0 Z " fill="#62ADD6" transform="translate(191,246)"/>
<path d="M0 0 C12 0 12 0 17 3 C17.6875 5.125 17.6875 5.125 18 7 C18.66 7.33 19.32 7.66 20 8 C19.01 8 18.02 8 17 8 C15.9790625 6.7934375 15.9790625 6.7934375 14.9375 5.5625 C11.38424927 1.96356715 11.38424927 1.96356715 2 2 C2 12.89 2 23.78 2 35 C1.67 35 1.34 35 1 35 C0.505 17.675 0.505 17.675 0 0 Z " fill="#8FCAEB" transform="translate(286,181)"/>
<path d="M0 0 C3.77545388 1.09068668 6.47043472 1.9083091 9 5 C9.33 4.34 9.66 3.68 10 3 C12.31 3 14.62 3 17 3 C16.835 4.0725 16.67 5.145 16.5 6.25 C15.91189085 10.03028752 15.91189085 10.03028752 16 14 C15.01 14.495 15.01 14.495 14 15 C13.51789063 14.43410156 13.03578125 13.86820313 12.5390625 13.28515625 C11.59160156 12.18494141 11.59160156 12.18494141 10.625 11.0625 C9.99851562 10.33160156 9.37203125 9.60070312 8.7265625 8.84765625 C7.12252286 6.91619094 7.12252286 6.91619094 5 6 C5 5.34 5 4.68 5 4 C4.34 4 3.68 4 3 4 C3 3.34 3 2.68 3 2 C2.01 1.67 1.02 1.34 0 1 C0 0.67 0 0.34 0 0 Z " fill="#3DA2E2" transform="translate(342,110)"/>
<path d="M0 0 C1.60725635 3.21451269 1.05748185 6.43612536 1 10 C-0.65 10.33 -2.3 10.66 -4 11 C-3.7525 11.7425 -3.505 12.485 -3.25 13.25 C-3.12625 14.61125 -3.12625 14.61125 -3 16 C-4.875 18.0625 -4.875 18.0625 -7 20 C-7.7872678 22.1381966 -7.7872678 22.1381966 -8 24 C-8.66 24 -9.32 24 -10 24 C-10 24.66 -10 25.32 -10 26 C-10.66 26 -11.32 26 -12 26 C-10.00282172 16.74425979 -4.59722578 8.16757982 0 0 Z " fill="#57A9D8" transform="translate(79,118)"/>
<path d="M0 0 C0.84570557 0.26103516 1.69141113 0.52207031 2.56274414 0.79101562 C3.35801514 1.04560547 4.15328613 1.30019531 4.97265625 1.5625 C5.6881665 1.79066406 6.40367676 2.01882812 7.14086914 2.25390625 C8.9375 3 8.9375 3 10.9375 5 C6.47215927 5.33490055 3.4421631 4.43709861 -0.68164062 2.83081055 C-5.20265336 1.2531848 -9.88930465 0.32747878 -14.5625 -0.6875 C-15.57570313 -0.91244141 -16.58890625 -1.13738281 -17.6328125 -1.36914062 C-20.10828058 -1.91794723 -22.58478709 -2.46143624 -25.0625 -3 C-17.33266358 -7.14845674 -7.89790729 -2.45043532 0 0 Z " fill="#5AA5D5" transform="translate(313.0625,30)"/>
<path d="M0 0 C2.875 0.5625 2.875 0.5625 6 2 C7.375 5.625 7.375 5.625 8 9 C4.535 10.485 4.535 10.485 1 12 C0.67 11.34 0.34 10.68 0 10 C-0.99 9.67 -1.98 9.34 -3 9 C-2.67 7.02 -2.34 5.04 -2 3 C-1.34 3 -0.68 3 0 3 C0 2.01 0 1.02 0 0 Z " fill="#2F9DE4" transform="translate(329,207)"/>
<path d="M0 0 C0.66 0 1.32 0 2 0 C2 1.32 2 2.64 2 4 C2.99 4.33 3.98 4.66 5 5 C5.6875 7.0625 5.6875 7.0625 6 9 C7.423125 9.0928125 7.423125 9.0928125 8.875 9.1875 C9.90625 9.455625 10.9375 9.72375 12 10 C13.125 12.3125 13.125 12.3125 14 15 C14.70125 15.70125 15.4025 16.4025 16.125 17.125 C18 19 18 19 18 22 C17.34 22 16.68 22 16 22 C16 21.34 16 20.68 16 20 C15.34 20 14.68 20 14 20 C12.58984375 18.6015625 12.58984375 18.6015625 10.9375 16.625 C8.02935433 13.20148675 5.07339727 9.83383262 2.0625 6.5 C1.29035156 5.6440625 0.51820312 4.788125 -0.27734375 3.90625 C-0.84582031 3.2771875 -1.41429688 2.648125 -2 2 C-1.34 1.34 -0.68 0.68 0 0 Z " fill="#58AAD8" transform="translate(114,359)"/>
<path d="M0 0 C1.63001953 0.01353516 1.63001953 0.01353516 3.29296875 0.02734375 C4.12441406 0.03894531 4.95585937 0.05054688 5.8125 0.0625 C5.8125 0.3925 5.8125 0.7225 5.8125 1.0625 C4.85150391 1.20945313 4.85150391 1.20945313 3.87109375 1.359375 C-3.14403588 2.57212468 -8.15490331 4.1983809 -13.4375 9.1875 C-15.90070127 13.23418779 -17.0172617 17.49679755 -18.1875 22.0625 C-18.5175 22.0625 -18.8475 22.0625 -19.1875 22.0625 C-19.21448189 20.43759046 -19.23388757 18.81255367 -19.25 17.1875 C-19.26160156 16.28257812 -19.27320313 15.37765625 -19.28515625 14.4453125 C-19.1875 12.0625 -19.1875 12.0625 -18.1875 10.0625 C-17.5275 10.0625 -16.8675 10.0625 -16.1875 10.0625 C-16.1875 9.4025 -16.1875 8.7425 -16.1875 8.0625 C-15.5275 8.0625 -14.8675 8.0625 -14.1875 8.0625 C-14.1875 6.7425 -14.1875 5.4225 -14.1875 4.0625 C-13.548125 3.93875 -12.90875 3.815 -12.25 3.6875 C-11.2290625 3.378125 -11.2290625 3.378125 -10.1875 3.0625 C-9.8575 2.4025 -9.5275 1.7425 -9.1875 1.0625 C-5.90230525 -0.03256492 -3.45086585 -0.03710608 0 0 Z " fill="#55A7D3" transform="translate(308.1875,239.9375)"/>
<path d="M0 0 C5.5281185 2.84262424 10.74625009 6.06101035 15.875 9.5625 C16.43405029 9.93818115 16.99310059 10.3138623 17.5690918 10.70092773 C20.63755465 12.82610687 22.96399967 14.86057292 25 18 C22 18 22 18 19 16 C17.7315625 15.8453125 17.7315625 15.8453125 16.4375 15.6875 C15.633125 15.460625 14.82875 15.23375 14 15 C12.6875 12.4375 12.6875 12.4375 12 10 C11.34 10 10.68 10 10 10 C10 9.34 10 8.68 10 8 C9.01 7.67 8.02 7.34 7 7 C7 6.34 7 5.68 7 5 C5.35 5 3.7 5 2 5 C2 4.01 2 3.02 2 2 C1.34 2 0.68 2 0 2 C0 1.34 0 0.68 0 0 Z " fill="#5BABD9" transform="translate(349,47)"/>
<path d="M0 0 C0.33 0 0.66 0 1 0 C2.55793171 11.50617034 1.1353609 21.68379363 -1 33 C-1.66 33 -2.32 33 -3 33 C-3.33 33.99 -3.66 34.98 -4 36 C-4.94889631 32.97057009 -4.9973812 30.98620361 -4.2578125 27.91015625 C-4.07895508 27.1313208 -3.90009766 26.35248535 -3.71582031 25.55004883 C-3.42336426 24.31871216 -3.42336426 24.31871216 -3.125 23.0625 C-1.38114231 15.33726966 -0.28477627 7.93101913 0 0 Z " fill="#62ADD5" transform="translate(393,230)"/>
<path d="M0 0 C0.93423645 3.01031744 1.04449911 3.86650268 0 7 C-0.66 7 -1.32 7 -2 7 C-2.433125 7.86625 -2.433125 7.86625 -2.875 8.75 C-3.91666667 10.83333333 -4.95833333 12.91666667 -6 15 C-6.99 15 -7.98 15 -9 15 C-9.268125 15.639375 -9.53625 16.27875 -9.8125 16.9375 C-11 19 -11 19 -14 20 C-14 20.66 -14 21.32 -14 22 C-14.66 21.67 -15.32 21.34 -16 21 C-10.87117154 13.82509636 -5.57451799 6.83471488 0 0 Z " fill="#409DD4" transform="translate(102,86)"/>
<path d="M0 0 C0 0.66 0 1.32 0 2 C-0.66 2 -1.32 2 -2 2 C-2.33 2.99 -2.66 3.98 -3 5 C-3.99 4.67 -4.98 4.34 -6 4 C-6 5.32 -6 6.64 -6 8 C-7.65 7.34 -9.3 6.68 -11 6 C-11 6.66 -11 7.32 -11 8 C-14.01031744 8.93423645 -14.86650268 9.04449911 -18 8 C-18.33 8.66 -18.66 9.32 -19 10 C-21.31 9.67 -23.62 9.34 -26 9 C-23.29739858 7.58476842 -20.64177758 6.47128322 -17.7421875 5.52734375 C-16.95199219 5.26759766 -16.16179687 5.00785156 -15.34765625 4.74023438 C-14.53167969 4.47533203 -13.71570313 4.21042969 -12.875 3.9375 C-11.24695903 3.40628475 -9.61933392 2.87379278 -7.9921875 2.33984375 C-7.27401855 2.10644287 -6.55584961 1.87304199 -5.81591797 1.63256836 C-1.12929371 0 -1.12929371 0 0 0 Z " fill="#5EAEDC" transform="translate(308,357)"/>
<path d="M0 0 C0.66 0.33 1.32 0.66 2 1 C-1.61736627 8.03376774 -7.73319655 12.22652918 -15 15 C-15.99 15 -16.98 15 -18 15 C-16.625 13.5 -16.625 13.5 -15 12 C-14.34 12 -13.68 12 -13 12 C-13 11.34 -13 10.68 -13 10 C-10.8664718 8.21229093 -8.73155942 6.53127176 -6.5 4.875 C-5.87996094 4.40707031 -5.25992188 3.93914063 -4.62109375 3.45703125 C-3.08497483 2.29903391 -1.54301941 1.14878643 0 0 Z " fill="#5BADDA" transform="translate(132,59)"/>
<path d="M0 0 C0.33 0.99 0.66 1.98 1 3 C0.01 4.485 0.01 4.485 -1 6 C-1.66 6 -2.32 6 -3 6 C-3.268125 6.7425 -3.53625 7.485 -3.8125 8.25 C-4.95276751 10.89061949 -6.09380306 12.85552844 -8 15 C-8.66 15 -9.32 15 -10 15 C-10.226875 15.53625 -10.45375 16.0725 -10.6875 16.625 C-12.43382056 19.78500863 -14.6402849 22.2676983 -17 25 C-17.33 23.68 -17.66 22.36 -18 21 C-16.68 20.67 -15.36 20.34 -14 20 C-14 18.68 -14 17.36 -14 16 C-12.09316578 13.548356 -11.02015057 13.00671686 -8 12 C-6.97348627 10.28480253 -6.97348627 10.28480253 -6 8 C-2.41901932 1.20950966 -2.41901932 1.20950966 0 0 Z " fill="#5FA9D4" transform="translate(408,332)"/>
<path d="M0 0 C1.92578125 1.09765625 1.92578125 1.09765625 4.80078125 3.09765625 C4.47078125 3.75765625 4.14078125 4.41765625 3.80078125 5.09765625 C3.24390625 4.95328125 2.68703125 4.80890625 2.11328125 4.66015625 C-6.63320484 2.40928069 -6.63320484 2.40928069 -15.19921875 4.09765625 C-16.18921875 3.43765625 -17.17921875 2.77765625 -18.19921875 2.09765625 C-12.59915774 -1.43922439 -6.24875114 -2.5638748 0 0 Z " fill="#55A6D2" transform="translate(318.19921875,246.90234375)"/>
<path d="M0 0 C0.66 0.66 1.32 1.32 2 2 C1.835 3.093125 1.67 4.18625 1.5 5.3125 C0.97029663 9.21906239 1.49082863 10.51004121 3 14 C2.625 16.3125 2.625 16.3125 2 18 C-1.43657863 14.21976351 -2.97909302 11.01172518 -4 6 C-3.67 5.01 -3.34 4.02 -3 3 C-3.99 2.67 -4.98 2.34 -6 2 C-5.38125 1.855625 -4.7625 1.71125 -4.125 1.5625 C-1.96741678 1.06847775 -1.96741678 1.06847775 0 0 Z " fill="#40A0DF" transform="translate(307,178)"/>
<path d="M0 0 C0.66 0 1.32 0 2 0 C1.59521787 5.00651583 1.08036739 9.90247206 0 14.8125 C-1.28406304 20.8207651 -1.63535001 26.87771853 -2 33 C-6.56896285 25.90840515 -3.11161404 13.89894809 -1.4375 6.0625 C-0.96918808 4.03912361 -0.49420076 2.01720938 0 0 Z " fill="#5EA6D1" transform="translate(57,171)"/>
<path d="M0 0 C-1.33494416 4.00483247 -3.92998798 5.48413271 -7.25 7.8125 C-7.82363281 8.24498047 -8.39726562 8.67746094 -8.98828125 9.12304688 C-10.703125 10.33203125 -10.703125 10.33203125 -14 12 C-18.08813128 11.10877588 -20.23554396 9.07161782 -23 6 C-19.7 6.99 -16.4 7.98 -13 9 C-13 8.34 -13 7.68 -13 7 C-11.68 7 -10.36 7 -9 7 C-9 5.35 -9 3.7 -9 2 C-3 0 -3 0 0 0 Z " fill="#58A8D7" transform="translate(265,468)"/>
<path d="M0 0 C2 3 2 3 1.375 6.625 C-0.39291686 12.79560012 -2.4259132 18.4259132 -7 23 C-6.67 19.7 -6.34 16.4 -6 13 C-4.68 12.67 -3.36 12.34 -2 12 C-2 9.36 -2 6.72 -2 4 C-1.34 4 -0.68 4 0 4 C0 2.68 0 1.36 0 0 Z " fill="#459DD2" transform="translate(438,271)"/>
<path d="M0 0 C0.33 0.66 0.66 1.32 1 2 C0.21753906 2.12117188 -0.56492188 2.24234375 -1.37109375 2.3671875 C-2.88896484 2.61855469 -2.88896484 2.61855469 -4.4375 2.875 C-5.44683594 3.03742187 -6.45617187 3.19984375 -7.49609375 3.3671875 C-8.32238281 3.57601563 -9.14867187 3.78484375 -10 4 C-10.33 4.66 -10.66 5.32 -11 6 C-15.28769786 7.29930238 -19.56510345 7.07516774 -24 7 C-20.19612847 4.46408565 -16.31371331 3.25379572 -12 1.8125 C-11.18015625 1.52697266 -10.3603125 1.24144531 -9.515625 0.94726562 C-8.72671875 0.68236328 -7.9378125 0.41746094 -7.125 0.14453125 C-6.40570313 -0.09934326 -5.68640625 -0.34321777 -4.9453125 -0.59448242 C-3 -1 -3 -1 0 0 Z " fill="#5DAFDC" transform="translate(203,27)"/>
<path d="M0 0 C8.69651012 2.57132391 17.347852 5.28412724 26 8 C25.34 8.66 24.68 9.32 24 10 C18.76304657 9.61680829 13.91431528 7.73738419 9 6 C8.23429688 5.74992187 7.46859375 5.49984375 6.6796875 5.2421875 C4.75290622 4.58611502 2.87084226 3.80178954 1 3 C0.67 2.01 0.34 1.02 0 0 Z " fill="#66B4D9" transform="translate(192,357)"/>
<path d="M0 0 C1.15435547 0.19916016 1.15435547 0.19916016 2.33203125 0.40234375 C15.48473957 2.42470182 28.71486614 2.64387676 42 3 C42 3.33 42 3.66 42 4 C37.30437734 4.04977421 32.60891137 4.08589521 27.91308594 4.10986328 C26.31865765 4.11986475 24.72424743 4.13347031 23.12988281 4.15087891 C20.82612624 4.17538695 18.52261405 4.18654176 16.21875 4.1953125 C15.51633179 4.20563507 14.81391357 4.21595764 14.09020996 4.22659302 C9.0979605 4.22770188 4.80545446 3.36154543 0 2 C0 1.34 0 0.68 0 0 Z " fill="#76BADC" transform="translate(218,366)"/>
<path d="M0 0 C2.03833424 1.2739589 4.03852126 2.61061923 6 4 C6 4.66 6 5.32 6 6 C6.515625 6.226875 7.03125 6.45375 7.5625 6.6875 C10.92403127 8.4975553 13.92911144 10.73996404 17 13 C14 15 14 15 11.3125 14.625 C10.549375 14.41875 9.78625 14.2125 9 14 C8.67 13.01 8.34 12.02 8 11 C7.01 10.67 6.02 10.34 5 10 C5 8.68 5 7.36 5 6 C4.01 5.67 3.02 5.34 2 5 C2 4.34 2 3.68 2 3 C1.34 3 0.68 3 0 3 C0 2.01 0 1.02 0 0 Z " fill="#5CABDA" transform="translate(150,328)"/>
<path d="M0 0 C3.48331435 3.01887244 4.79157144 5.56909529 6 10 C6.66 10 7.32 10 8 10 C8.99 11.98 9.98 13.96 11 16 C10.01 16 9.02 16 8 16 C7.67 14.35 7.34 12.7 7 11 C6.01 11 5.02 11 4 11 C3.67 10.01 3.34 9.02 3 8 C-0.00847418 6.77479736 -0.00847418 6.77479736 -3 6 C-2.42655063 3.13275314 -2.1385485 2.1385485 0 0 Z " fill="#4DA3DA" transform="translate(125,296)"/>
<path d="M0 0 C2 2 2 2 2.1875 3.875 C3.54699782 7.43060967 6.69569617 8.31780896 10 10 C9.67 11.32 9.34 12.64 9 14 C8.01 13.34 7.02 12.68 6 12 C6 11.34 6 10.68 6 10 C5.443125 9.731875 4.88625 9.46375 4.3125 9.1875 C1.78774666 7.89100504 -0.63714484 6.57523677 -3 5 C-3 4.34 -3 3.68 -3 3 C-3.99 2.67 -4.98 2.34 -6 2 C-6 1.67 -6 1.34 -6 1 C-3.125 0.375 -3.125 0.375 0 0 Z " fill="#5EAFD8" transform="translate(197,434)"/>
<path d="M0 0 C0.33 0 0.66 0 1 0 C1 4.95 1 9.9 1 15 C2.98 15.495 2.98 15.495 5 16 C5 20.29 5 24.58 5 29 C4.01 28.67 3.02 28.34 2 28 C2.06510417 26.01432292 2.13020833 24.02864583 2.1953125 22.04296875 C2.13254462 19.68640281 2.13254462 19.68640281 0 17 C-0.22705078 15.09887695 -0.22705078 15.09887695 -0.1953125 12.98828125 C-0.18886719 12.23095703 -0.18242187 11.47363281 -0.17578125 10.69335938 C-0.15902344 9.90767578 -0.14226562 9.12199219 -0.125 8.3125 C-0.11597656 7.51521484 -0.10695313 6.71792969 -0.09765625 5.89648438 C-0.07411585 3.930861 -0.03824547 1.96539225 0 0 Z " fill="#6DB9E3" transform="translate(350,231)"/>
<path d="M0 0 C3.60379152 -0.45047394 5.76405659 0.26097991 8.875 1.9375 C12.65895137 3.97335216 15.7346816 4.6445568 20 5 C20 6.65 20 8.3 20 10 C15.26210835 8.55676531 11.01141849 6.62773267 6.625 4.375 C5.66400391 3.88773437 5.66400391 3.88773437 4.68359375 3.390625 C3.12052499 2.59742593 1.55999378 1.79922969 0 1 C0 0.67 0 0.34 0 0 Z " fill="#67AFD2" transform="translate(303,86)"/>
<path d="M0 0 C0.67163086 1.79785156 0.67163086 1.79785156 1 4 C-0.07983398 5.64746094 -0.07983398 5.64746094 -1.74609375 7.234375 C-2.33583984 7.80800781 -2.92558594 8.38164062 -3.53320312 8.97265625 C-4.16162109 9.55917969 -4.79003906 10.14570313 -5.4375 10.75 C-6.06205078 11.35199219 -6.68660156 11.95398438 -7.33007812 12.57421875 C-8.87578596 14.0609301 -10.4365232 15.5319865 -12 17 C-12.33 16.01 -12.66 15.02 -13 14 C-11.625 12.5 -11.625 12.5 -10 11 C-9.34 11 -8.68 11 -8 11 C-8.33 10.01 -8.66 9.02 -9 8 C-7.75 6.5 -7.75 6.5 -6 5 C-4.68 5 -3.36 5 -2 5 C-2 3.68 -2 2.36 -2 1 C-1.34 0.67 -0.68 0.34 0 0 Z " fill="#4DA3D4" transform="translate(362,383)"/>
<path d="M0 0 C1.45880109 0.14107747 2.91703551 0.28802415 4.375 0.4375 C5.59316406 0.55931641 5.59316406 0.55931641 6.8359375 0.68359375 C9 1 9 1 11 2 C11 2.99 11 3.98 11 5 C11.99 5.33 12.98 5.66 14 6 C14 6.66 14 7.32 14 8 C14.66 8 15.32 8 16 8 C16.33 10.97 16.66 13.94 17 17 C14.3144406 14.3144406 13.93950026 11.62378672 13 8 C12.34 8 11.68 8 11 8 C11 7.34 11 6.68 11 6 C10.34 6 9.68 6 9 6 C9 5.34 9 4.68 9 4 C6.03 3.01 3.06 2.02 0 1 C0 0.67 0 0.34 0 0 Z " fill="#76B7D9" transform="translate(315,241)"/>
<path d="M0 0 C6.16356805 1.6658292 11.48259656 4.87805286 17 8 C17 8.33 17 8.66 17 9 C14.69 9.33 12.38 9.66 10 10 C10 9.01 10 8.02 10 7 C8.02 7 6.04 7 4 7 C3.67 6.01 3.34 5.02 3 4 C2.01 3.34 1.02 2.68 0 2 C0 1.34 0 0.68 0 0 Z " fill="#5DAED7" transform="translate(175,348)"/>
<path d="M0 0 C1.65 0 3.3 0 5 0 C5 0.66 5 1.32 5 2 C2.58459694 2.98238408 0.16778178 3.96100218 -2.25 4.9375 C-2.93191406 5.21529297 -3.61382812 5.49308594 -4.31640625 5.77929688 C-7.51923638 7.06975756 -10.63837534 8.21800044 -14 9 C-14 8.01 -14 7.02 -14 6 C-12.68 6 -11.36 6 -10 6 C-10 5.34 -10 4.68 -10 4 C-8.35 4 -6.7 4 -5 4 C-5 3.34 -5 2.68 -5 2 C-3.35 2 -1.7 2 0 2 C0 1.34 0 0.68 0 0 Z " fill="#58A7D3" transform="translate(202,81)"/>
<path d="M0 0 C1.65 0 3.3 0 5 0 C3.61122646 3.35620271 2.08322035 5.07298728 -1 7 C-1.66 7 -2.32 7 -3 7 C-3 7.66 -3 8.32 -3 9 C-4.98 9.99 -4.98 9.99 -7 11 C-7.33 9.35 -7.66 7.7 -8 6 C-5.36 5.01 -2.72 4.02 0 3 C0 2.01 0 1.02 0 0 Z " fill="#4EA6D3" transform="translate(300,437)"/>
<path d="M0 0 C0.66 0 1.32 0 2 0 C1.3125 2.4375 1.3125 2.4375 0 5 C-1.66666667 5.33333333 -3.33333333 5.66666667 -5 6 C-6.24714403 8.40952023 -6.24714403 8.40952023 -7 11 C-7.66 11.66 -8.32 12.32 -9 13 C-10.2077558 9.37673261 -9.54311128 8.35853631 -8 5 C-7.34 5 -6.68 5 -6 5 C-6 4.34 -6 3.68 -6 3 C-4.35 3 -2.7 3 -1 3 C-0.67 2.01 -0.34 1.02 0 0 Z " fill="#43A2DE" transform="translate(411,327)"/>
<path d="M0 0 C0.33 0 0.66 0 1 0 C1.49940808 6.11774896 0.24900602 9.02495953 -3 14 C-3.66 14 -4.32 14 -5 14 C-4.49580302 8.95803017 -3.75495562 3.75495562 0 0 Z " fill="#48A1D6" transform="translate(387,270)"/>
<path d="M0 0 C1.37562854 1.28965176 2.70766393 2.62689293 4 4 C4 4.66 4 5.32 4 6 C4.66 6 5.32 6 6 6 C10 10.47058824 10 10.47058824 10 13 C10.66 13 11.32 13 12 13 C11.67 13.66 11.34 14.32 11 15 C9.02 14.34 7.04 13.68 5 13 C5 11.35 5 9.7 5 8 C3.68 7.67 2.36 7.34 1 7 C0.67 4.69 0.34 2.38 0 0 Z " fill="#5FAAD9" transform="translate(330,201)"/>
<path d="M0 0 C4.0384057 -0.0744389 8.07654293 -0.12873729 12.11547852 -0.16479492 C13.48794517 -0.17983432 14.86036414 -0.20027133 16.23266602 -0.22631836 C18.21088656 -0.26291221 20.18946514 -0.27816698 22.16796875 -0.29296875 C23.35672607 -0.3086792 24.5454834 -0.32438965 25.77026367 -0.34057617 C29.28064831 0.02959441 31.15535052 0.96676743 34 3 C33.34 3.66 32.68 4.32 32 5 C31.67 4.34 31.34 3.68 31 3 C24.62499632 1.64989403 18.05526223 1.67254955 11.5625 1.4375 C10.44939453 1.39431641 9.33628906 1.35113281 8.18945312 1.30664062 C5.45974156 1.20120112 2.72994857 1.09907971 0 1 C0 0.67 0 0.34 0 0 Z " fill="#4D9ED3" transform="translate(272,170)"/>
<path d="M0 0 C0.33 0 0.66 0 1 0 C1.02705308 2.41674224 1.04686438 4.8331794 1.0625 7.25 C1.07087891 7.93191406 1.07925781 8.61382812 1.08789062 9.31640625 C1.10428392 12.69342554 1.05628768 15.77291639 0 19 C-0.66 19 -1.32 19 -2 19 C-2.05428973 16.77110504 -2.09292338 14.54182529 -2.125 12.3125 C-2.15980469 10.45044922 -2.15980469 10.45044922 -2.1953125 8.55078125 C-2.01032021 5.18762143 -1.45767895 3.0014413 0 0 Z " fill="#4199CF" transform="translate(446,229)"/>
<path d="M0 0 C1.65 0 3.3 0 5 0 C2.32459253 3.56720996 -0.35659412 6.41126424 -4 9 C-4.66 9 -5.32 9 -6 9 C-6 9.66 -6 10.32 -6 11 C-6.66 11 -7.32 11 -8 11 C-8 9.68 -8 8.36 -8 7 C-7.01 7 -6.02 7 -5 7 C-4.67 5.68 -4.34 4.36 -4 3 C-2.68 2.67 -1.36 2.34 0 2 C0 1.34 0 0.68 0 0 Z " fill="#54A9D8" transform="translate(325,417)"/>
<path d="M0 0 C-9.71428571 8 -9.71428571 8 -13 8 C-13 8.66 -13 9.32 -13 10 C-13.99 10.33 -14.98 10.66 -16 11 C-16.33 10.34 -16.66 9.68 -17 9 C-16.01 9 -15.02 9 -14 9 C-13.67 7.35 -13.34 5.7 -13 4 C-11.35 4 -9.7 4 -8 4 C-8 3.01 -8 2.02 -8 1 C-5.29120665 -0.35439668 -2.99066732 -0.06501451 0 0 Z " fill="#5AA8D6" transform="translate(179,95)"/>
<path d="M0 0 C0.99 0 1.98 0 3 0 C2.67 1.98 2.34 3.96 2 6 C1.34 6 0.68 6 0 6 C-0.268125 6.94875 -0.53625 7.8975 -0.8125 8.875 C-2 12 -2 12 -5 14 C-5.1875 11.125 -5.1875 11.125 -5 8 C-4.01 7.34 -3.02 6.68 -2 6 C-0.78715124 2.94570927 -0.78715124 2.94570927 0 0 Z " fill="#52A4D3" transform="translate(418,313)"/>
<path d="M0 0 C0.33 0 0.66 0 1 0 C1.36504603 1.58086048 1.71660506 3.16483907 2.0625 4.75 C2.25972656 5.63171875 2.45695312 6.5134375 2.66015625 7.421875 C2.99825872 9.98679028 2.81158635 11.57091639 2 14 C0.99466333 12.37829621 -0.00411907 10.75252763 -1 9.125 C-1.556875 8.22007812 -2.11375 7.31515625 -2.6875 6.3828125 C-4 4 -4 4 -4 2 C-2.68 2 -1.36 2 0 2 C0 1.34 0 0.68 0 0 Z " fill="#50A8D8" transform="translate(77,302)"/>
<path d="M0 0 C0.66 0 1.32 0 2 0 C3.80946273 6.15502282 4.25269614 11.60537019 4.125 18 C4.11597656 18.87011719 4.10695313 19.74023438 4.09765625 20.63671875 C4.07434619 22.7579342 4.03848579 24.87900562 4 27 C3.67 27 3.34 27 3 27 C2 18 1 9 0 0 Z " fill="#7BBBD9" transform="translate(390,188)"/>
<path d="M0 0 C1.98 0 3.96 0 6 0 C5.04882866 1.1725131 4.08882991 2.33787015 3.125 3.5 C2.32449219 4.47453125 2.32449219 4.47453125 1.5078125 5.46875 C1.01023437 5.9740625 0.51265625 6.479375 0 7 C-0.66 7 -1.32 7 -2 7 C-2 7.66 -2 8.32 -2 9 C-3.98 9.99 -3.98 9.99 -6 11 C-6 9.35 -6 7.7 -6 6 C-3.69 5.34 -1.38 4.68 1 4 C0.67 2.68 0.34 1.36 0 0 Z " fill="#55A6D5" transform="translate(336,406)"/>
<path d="M0 0 C0.99 0 1.98 0 3 0 C3 0.66 3 1.32 3 2 C2.2575 2.53625 1.515 3.0725 0.75 3.625 C-2.7295088 6.63003033 -4.19318785 9.84130388 -6 14 C-6.66 13.67 -7.32 13.34 -8 13 C-7.55074862 8.17054764 -6.45263456 5.45263456 -3 2 C-2.01 2 -1.02 2 0 2 C0 1.34 0 0.68 0 0 Z " fill="#59A6D1" transform="translate(175,243)"/>
<path d="M0 0 C2.2798997 2.2798997 2.93842768 3.86932037 3.11352539 7.0847168 C3.10828857 7.86500244 3.10305176 8.64528809 3.09765625 9.44921875 C3.09282227 10.72055664 3.09282227 10.72055664 3.08789062 12.01757812 C3.07951172 12.89865234 3.07113281 13.77972656 3.0625 14.6875 C3.05798828 15.58017578 3.05347656 16.47285156 3.04882812 17.39257812 C3.03704983 19.59511987 3.02060164 21.79752599 3 24 C2.67 24 2.34 24 2 24 C1.67 19.71 1.34 15.42 1 11 C0.67 11 0.34 11 0 11 C-0.19406478 9.35492782 -0.38007935 7.70890406 -0.5625 6.0625 C-0.66691406 5.14597656 -0.77132813 4.22945312 -0.87890625 3.28515625 C-0.91886719 2.53105469 -0.95882813 1.77695313 -1 1 C-0.67 0.67 -0.34 0.34 0 0 Z " fill="#4A9ACC" transform="translate(347,222)"/>
<path d="M0 0 C2.54152079 2.54152079 2.26060808 4.19760983 2.2734375 7.66796875 C2.26570313 8.39628906 2.25796875 9.12460938 2.25 9.875 C2.25773437 10.59558594 2.26546875 11.31617188 2.2734375 12.05859375 C2.25905864 15.96245504 1.89165534 18.61211478 0 22 C-0.19590444 18.52125243 -0.38031592 15.04199096 -0.5625 11.5625 C-0.61857422 10.56927734 -0.67464844 9.57605469 -0.73242188 8.55273438 C-0.78076172 7.60849609 -0.82910156 6.66425781 -0.87890625 5.69140625 C-0.9260376 4.81685791 -0.97316895 3.94230957 -1.02172852 3.04125977 C-1 1 -1 1 0 0 Z " fill="#339BDB" transform="translate(445,211)"/>
<path d="M0 0 C0.61875 0.350625 1.2375 0.70125 1.875 1.0625 C2.57625 1.371875 3.2775 1.68125 4 2 C4.66 1.67 5.32 1.34 6 1 C5.88541307 2.43836751 5.75790884 3.87570966 5.625 5.3125 C5.55539062 6.11300781 5.48578125 6.91351563 5.4140625 7.73828125 C5 10 5 10 3 13 C2.49487756 11.39743892 1.99608373 9.79288208 1.5 8.1875 C1.2215625 7.29417969 0.943125 6.40085938 0.65625 5.48046875 C0 3 0 3 0 0 Z " fill="#4DA9DC" transform="translate(386,174)"/>
<path d="M0 0 C2.475 0.495 2.475 0.495 5 1 C5.33 1.99 5.66 2.98 6 4 C7.32 4 8.64 4 10 4 C10.66 4.33 11.32 4.66 12 5 C12 6.98 12 8.96 12 11 C10.66102417 10.04956626 9.32894573 9.08940853 8 8.125 C7.2575 7.59132813 6.515 7.05765625 5.75 6.5078125 C5.1725 6.01023437 4.595 5.51265625 4 5 C4 4.34 4 3.68 4 3 C3.34 3 2.68 3 2 3 C2 2.34 2 1.68 2 1 C1.34 0.67 0.68 0.34 0 0 Z " fill="#5AABD9" transform="translate(132,382)"/>
<path d="M0 0 C0.99 0.33 1.98 0.66 3 1 C2.04270084 2.12588014 1.08412105 3.2506715 0.125 4.375 C-0.40867187 5.00148438 -0.94234375 5.62796875 -1.4921875 6.2734375 C-2.61432007 7.55836651 -3.79371975 8.79371975 -5 10 C-6.32 9.67 -7.64 9.34 -9 9 C-6.03 6.03 -3.06 3.06 0 0 Z " fill="#4CA2D1" transform="translate(358,319)"/>
<path d="M0 0 C1.8125 0.0625 1.8125 0.0625 4 1 C6.25 4.0625 6.25 4.0625 8 7 C3.85526316 8.38157895 3.85526316 8.38157895 1 7 C-0.25 3.9375 -0.25 3.9375 -1 1 C-0.67 0.67 -0.34 0.34 0 0 Z " fill="#49A1D7" transform="translate(138,317)"/>
<path d="M0 0 C0.66 0.33 1.32 0.66 2 1 C1.67 6.28 1.34 11.56 1 17 C0.34 17 -0.32 17 -1 17 C-1.02684679 14.35409986 -1.04676357 11.70846904 -1.0625 9.0625 C-1.07087891 8.30775391 -1.07925781 7.55300781 -1.08789062 6.77539062 C-1.09652441 4.85005687 -1.05224333 2.92464419 -1 1 C-0.67 0.67 -0.34 0.34 0 0 Z " fill="#63AED5" transform="translate(106,196)"/>
<path d="M0 0 C1.98 0 3.96 0 6 0 C6 0.66 6 1.32 6 2 C0.66553 4.667235 -3.02503906 5.50635262 -9 5 C-9.66 4.34 -10.32 3.68 -11 3 C-7.37 3 -3.74 3 0 3 C0 2.01 0 1.02 0 0 Z " fill="#589DC9" transform="translate(194,274)"/>
<path d="M0 0 C0.66 0.33 1.32 0.66 2 1 C1.67 1.99 1.34 2.98 1 4 C0.01 4.33 -0.98 4.66 -2 5 C-2.495 5.515625 -2.99 6.03125 -3.5 6.5625 C-5 8 -5 8 -8 8 C-8 7.34 -8 6.68 -8 6 C-8.66 5.67 -9.32 5.34 -10 5 C-8.38007835 4.13624104 -6.75388139 3.28424146 -5.125 2.4375 C-4.22007812 1.96183594 -3.31515625 1.48617187 -2.3828125 0.99609375 C-1.20332031 0.50302734 -1.20332031 0.50302734 0 0 Z " fill="#50A8DE" transform="translate(169,37)"/>
<path d="M0 0 C0.66 0.33 1.32 0.66 2 1 C0.33333333 2.66666667 -1.33333333 4.33333333 -3 6 C-3.433125 6.5775 -3.86625 7.155 -4.3125 7.75 C-7.19278647 9.88354554 -10.48474427 9.71186428 -14 10 C-4.57142857 2 -4.57142857 2 0 2 C0 1.34 0 0.68 0 0 Z " fill="#68B4D9" transform="translate(330,343)"/>
<path d="M0 0 C0.99 0 1.98 0 3 0 C3.268125 0.680625 3.53625 1.36125 3.8125 2.0625 C4.70042984 4.25895802 5.67330145 6.42141417 6.6875 8.5625 C8.0226401 12.05929551 8.08229516 12.68047726 7 16 C1.62870159 5.62642369 1.62870159 5.62642369 0 0 Z " fill="#57A7D1" transform="translate(65,288)"/>
<path d="M0 0 C0.66 0.33 1.32 0.66 2 1 C-0.77167019 6.54334038 -0.77167019 6.54334038 -4.26953125 7.84375 C-6.51050564 8.32370672 -8.72604935 8.7181856 -11 9 C-7.56638098 5.36440339 -4.2026393 2.63886654 0 0 Z " fill="#5BABD9" transform="translate(145,50)"/>
<path d="M0 0 C0.33 0.66 0.66 1.32 1 2 C2.93356663 2.46794323 2.93356663 2.46794323 5.25390625 2.6328125 C6.53491211 2.75849609 6.53491211 2.75849609 7.84179688 2.88671875 C8.73962891 2.96535156 9.63746094 3.04398437 10.5625 3.125 C11.91504883 3.25455078 11.91504883 3.25455078 13.29492188 3.38671875 C15.52929918 3.59951659 17.76413615 3.80354467 20 4 C20 4.33 20 4.66 20 5 C13.4 5 6.8 5 0 5 C0 3.35 0 1.7 0 0 Z " fill="#71B3D8" transform="translate(332,258)"/>
<path d="M0 0 C2.66694948 -0.05455124 5.33275498 -0.09393392 8 -0.125 C8.74378906 -0.14175781 9.48757813 -0.15851563 10.25390625 -0.17578125 C15.50548443 -0.22144715 19.9516946 0.54287549 25 2 C25 2.33 25 2.66 25 3 C23.56260487 3.02712066 22.12506137 3.04645067 20.6875 3.0625 C19.48673828 3.07990234 19.48673828 3.07990234 18.26171875 3.09765625 C16 3 16 3 13 2 C10.77425665 1.77548542 8.54418481 1.59217122 6.3125 1.4375 C5.13300781 1.35371094 3.95351563 1.26992187 2.73828125 1.18359375 C1.83464844 1.12300781 0.93101562 1.06242187 0 1 C0 0.67 0 0.34 0 0 Z " fill="#75B6D8" transform="translate(258,76)"/>
<path d="M0 0 C1.32 1.32 2.64 2.64 4 4 C-0.95 3.67 -5.9 3.34 -11 3 C-6.58289996 -0.31282503 -5.31728688 -0.66466086 0 0 Z " fill="#499FD1" transform="translate(191,246)"/>
<path d="M0 0 C0.99 0.33 1.98 0.66 3 1 C3 1.66 3 2.32 3 3 C3.99 3 4.98 3 6 3 C6.625 5.875 6.625 5.875 7 9 C6.34 9.66 5.68 10.32 5 11 C4.15841464 9.73461631 3.32700252 8.46246221 2.5 7.1875 C1.80390625 6.12595703 1.80390625 6.12595703 1.09375 5.04296875 C0 3 0 3 0 0 Z " fill="#5AADD5" transform="translate(368,137)"/>
<path d="M0 0 C0.33 0.99 0.66 1.98 1 3 C0.319375 4.051875 0.319375 4.051875 -0.375 5.125 C-2.56363437 8.99719928 -2.7232347 12.61947334 -3 17 C-3.66 16.67 -4.32 16.34 -5 16 C-5.61669998 9.09296024 -4.11242982 5.52240576 0 0 Z " fill="#78B7D7" transform="translate(299,250)"/>
<path d="M0 0 C0.33 0 0.66 0 1 0 C2.39986948 15.52778296 2.39986948 15.52778296 1 21 C0.34 21.33 -0.32 21.66 -1 22 C-0.67 14.74 -0.34 7.48 0 0 Z " fill="#6FB4DB" transform="translate(393,230)"/>
<path d="M0 0 C1.32 0.33 2.64 0.66 4 1 C-1.445 5.455 -1.445 5.455 -7 10 C-7.33 9.01 -7.66 8.02 -8 7 C-7.34 7 -6.68 7 -6 7 C-6 6.01 -6 5.02 -6 4 C-4.68 4 -3.36 4 -2 4 C-2 3.34 -2 2.68 -2 2 C-1.34 2 -0.68 2 0 2 C0 1.34 0 0.68 0 0 Z " fill="#6CB2D8" transform="translate(274,459)"/>
<path d="M0 0 C0 0.66 0 1.32 0 2 C-0.66 2 -1.32 2 -2 2 C-2.33 2.99 -2.66 3.98 -3 5 C-3.99 4.67 -4.98 4.34 -6 4 C-6 5.32 -6 6.64 -6 8 C-8.46800047 6.84826645 -10.04783565 5.95216435 -12 4 C-10.3767313 3.3291288 -8.75132422 2.66342971 -7.125 2 C-6.22007812 1.62875 -5.31515625 1.2575 -4.3828125 0.875 C-2 0 -2 0 0 0 Z " fill="#51A9DC" transform="translate(308,357)"/>
<path d="M0 0 C0.99 0.33 1.98 0.66 3 1 C3.33 3.31 3.66 5.62 4 8 C2.68 8 1.36 8 0 8 C-1.43088528 5.13822943 -0.59991697 3.06624227 0 0 Z M-3 7 C-2.01 7.495 -2.01 7.495 -1 8 C-1.99 9.485 -1.99 9.485 -3 11 C-3 9.68 -3 8.36 -3 7 Z " fill="#2F9BE2" transform="translate(319,191)"/>
<path d="M0 0 C0.33 0 0.66 0 1 0 C1.53160457 2.41474617 2.05054766 4.83108107 2.5625 7.25 C2.71396484 7.93191406 2.86542969 8.61382812 3.02148438 9.31640625 C3.75233495 12.81769038 4.32203546 15.60298173 3 19 C0.04328652 12.47059106 -0.35368021 7.12600133 0 0 Z " fill="#6AB1D8" transform="translate(442,171)"/>
<path d="M0 0 C2.03833424 1.2739589 4.03852126 2.61061923 6 4 C6 4.66 6 5.32 6 6 C6.61875 6.268125 7.2375 6.53625 7.875 6.8125 C10 8 10 8 12 11 C11.01 11.495 11.01 11.495 10 12 C10 11.34 10 10.68 10 10 C7.525 9.01 7.525 9.01 5 8 C5 7.01 5 6.02 5 5 C3.35 4.67 1.7 4.34 0 4 C0 2.68 0 1.36 0 0 Z " fill="#73B5D9" transform="translate(375,65)"/>
<path d="M0 0 C0.66 0 1.32 0 2 0 C3.80230168 3.82989106 4.19622241 6.78121808 4 11 C3.34 11 2.68 11 2 11 C1.67 10.01 1.34 9.02 1 8 C0.34 7.34 -0.32 6.68 -1 6 C-0.625 2.875 -0.625 2.875 0 0 Z " fill="#4EA3D7" transform="translate(115,277)"/>
<path d="M0 0 C1.65 0 3.3 0 5 0 C-0.64524422 5.80205656 -0.64524422 5.80205656 -4 8 C-4.66 8 -5.32 8 -6 8 C-5.67 6.02 -5.34 4.04 -5 2 C-4.34 2.66 -3.68 3.32 -3 4 C-2.67 3.34 -2.34 2.68 -2 2 C-1.34 2 -0.68 2 0 2 C0 1.34 0 0.68 0 0 Z " fill="#64B3D8" transform="translate(288,448)"/>
<path d="M0 0 C2.97 0.99 5.94 1.98 9 3 C9.33 4.65 9.66 6.3 10 8 C10.66 8 11.32 8 12 8 C11.67 8.66 11.34 9.32 11 10 C9.16375669 8.52444734 7.3310715 7.04446569 5.5 5.5625 C4.4790625 4.73878906 3.458125 3.91507812 2.40625 3.06640625 C1.6121875 2.38449219 0.818125 1.70257813 0 1 C0 0.67 0 0.34 0 0 Z " fill="#6CB4DA" transform="translate(166,414)"/>
<path d="M0 0 C-2 2 -2 2 -5.4765625 2.1953125 C-6.85950968 2.18201493 -8.24238654 2.15816232 -9.625 2.125 C-10.33140625 2.11597656 -11.0378125 2.10695313 -11.765625 2.09765625 C-13.51056098 2.07407603 -15.25532295 2.03820461 -17 2 C-17 1.67 -17 1.34 -17 1 C-15.10630916 0.63455089 -13.20991218 0.28310825 -11.3125 -0.0625 C-10.25675781 -0.25972656 -9.20101563 -0.45695312 -8.11328125 -0.66015625 C-5.08840784 -0.99034946 -2.92019489 -0.77474558 0 0 Z " fill="#5AACD9" transform="translate(284,367)"/>
<path d="M0 0 C0.33 0 0.66 0 1 0 C1.33 5.61 1.66 11.22 2 17 C1.34 17.33 0.68 17.66 0 18 C-1.60670684 14.78658631 -0.82510855 11.37041032 -0.5625 7.875 C-0.51029297 7.12089844 -0.45808594 6.36679688 -0.40429688 5.58984375 C-0.27454996 3.7262063 -0.13792512 1.86305004 0 0 Z " fill="#6BB7DA" transform="translate(106,232)"/>
<path d="M0 0 C0.33 0 0.66 0 1 0 C1.33 2.31 1.66 4.62 2 7 C5.3 7 8.6 7 12 7 C11.67 7.66 11.34 8.32 11 9 C9.35425434 9.02688151 7.70838587 9.04634123 6.0625 9.0625 C5.14597656 9.07410156 4.22945312 9.08570313 3.28515625 9.09765625 C1 9 1 9 0 8 C-0.14115161 5.32941149 -0.04247107 2.67567762 0 0 Z " fill="#80B6D2" transform="translate(222,209)"/>
<path d="M0 0 C2.9156164 3.54039134 5.50127818 7.1626772 8 11 C7.67 11.66 7.34 12.32 7 13 C1.26598465 7.56777494 1.26598465 7.56777494 0 4 C0 2.68 0 1.36 0 0 Z " fill="#66AED7" transform="translate(415,110)"/>
<path d="M0 0 C2 3 2 3 1.828125 4.9375 C1.63734375 5.618125 1.4465625 6.29875 1.25 7 C1.06953125 7.680625 0.8890625 8.36125 0.703125 9.0625 C0 11 0 11 -2 14 C-2 10.7 -2 7.4 -2 4 C-1.34 4 -0.68 4 0 4 C0 2.68 0 1.36 0 0 Z " fill="#53A8D9" transform="translate(438,271)"/>
<path d="M0 0 C2.375 0.3125 2.375 0.3125 5 1 C7 4 7 4 7 7 C6.34 7 5.68 7 5 7 C4.67 7.99 4.34 8.98 4 10 C3.87882813 9.36191406 3.75765625 8.72382813 3.6328125 8.06640625 C3.46523437 7.24011719 3.29765625 6.41382813 3.125 5.5625 C2.96257812 4.73878906 2.80015625 3.91507813 2.6328125 3.06640625 C2.42398438 2.38449219 2.21515625 1.70257813 2 1 C1.34 0.67 0.68 0.34 0 0 Z " fill="#56AAD7" transform="translate(205,249)"/>
<path d="M0 0 C0.33 0.99 0.66 1.98 1 3 C-2.21311475 8.73770492 -2.21311475 8.73770492 -6 10 C-6 10.66 -6 11.32 -6 12 C-6.66 11.67 -7.32 11.34 -8 11 C-5.36 7.37 -2.72 3.74 0 0 Z " fill="#6FBADA" transform="translate(94,96)"/>
<path d="M0 0 C3.39417765 3.12621626 5.6062718 5.56541027 7 10 C7.66 10 8.32 10 9 10 C8.67 10.66 8.34 11.32 8 12 C7.34 12 6.68 12 6 12 C5.67 11.01 5.34 10.02 5 9 C4.01 8.67 3.02 8.34 2 8 C0.04457812 5.01540871 0 3.73585209 0 0 Z " fill="#65B0D8" transform="translate(402,92)"/>
<path d="M0 0 C4.83628305 0.99043705 9.47618873 1.95698846 14 4 C14 4.33 14 4.66 14 5 C8.57960425 5.40652968 4.92984325 4.03993514 0 2 C0 1.34 0 0.68 0 0 Z " fill="#6EB7DB" transform="translate(310,30)"/>
<path d="M0 0 C0.66 0.66 1.32 1.32 2 2 C1.625 4.125 1.625 4.125 1 6 C-0.32 5.67 -1.64 5.34 -3 5 C-3 4.34 -3 3.68 -3 3 C-3.99 2.67 -4.98 2.34 -6 2 C-6 1.67 -6 1.34 -6 1 C-3.125 0.375 -3.125 0.375 0 0 Z " fill="#4EA6DA" transform="translate(197,434)"/>
<path d="M0 0 C0.66 0 1.32 0 2 0 C2 0.66 2 1.32 2 2 C3.32 2.33 4.64 2.66 6 3 C6 3.66 6 4.32 6 5 C7.32 5 8.64 5 10 5 C10 5.99 10 6.98 10 8 C6.12084756 7.42531075 3.85243395 5.62115553 1 3 C0.67 2.01 0.34 1.02 0 0 Z " fill="#6EB1D8" transform="translate(296,270)"/>
<path d="M0 0 C1.63001953 0.01353516 1.63001953 0.01353516 3.29296875 0.02734375 C4.12441406 0.03894531 4.95585937 0.05054688 5.8125 0.0625 C5.8125 0.3925 5.8125 0.7225 5.8125 1.0625 C0.4912385 2.14568169 -4.82236869 3.215374 -10.1875 4.0625 C-9.8575 3.0725 -9.5275 2.0825 -9.1875 1.0625 C-5.90230525 -0.03256492 -3.45086585 -0.03710608 0 0 Z " fill="#529FCC" transform="translate(308.1875,239.9375)"/>
<path d="M0 0 C2.97 0.495 2.97 0.495 6 1 C5.45773019 4.79588866 3.79872437 6.47211993 1 9 C0.67 6.03 0.34 3.06 0 0 Z " fill="#3EA4EB" transform="translate(211,177)"/>
<path d="M0 0 C3.31562557 0.55260426 6.15062207 1.16825705 9 3 C9.33 3.99 9.66 4.98 10 6 C9.01 6.495 9.01 6.495 8 7 C5.96166576 5.7260411 3.96147874 4.38938077 2 3 C2 2.34 2 1.68 2 1 C1.34 0.67 0.68 0.34 0 0 Z " fill="#5EA9D5" transform="translate(332,102)"/>
<path d="M0 0 C0 1.32 0 2.64 0 4 C0.99 4.33 1.98 4.66 3 5 C3.33 6.65 3.66 8.3 4 10 C1.06799526 7.14723863 -1.64315404 4.34920216 -4 1 C-2 0 -2 0 0 0 Z " fill="#6CB2D8" transform="translate(116,359)"/>
<path d="M0 0 C1.15603811 3.46811433 1 6.36568113 1 10 C1.33 10.33 1.66 10.66 2 11 C2.04063832 12.66617115 2.042721 14.33388095 2 16 C1.67 15.34 1.34 14.68 1 14 C0.01 13.67 -0.98 13.34 -2 13 C-1.85915204 11.20793453 -1.71216299 9.41635083 -1.5625 7.625 C-1.48128906 6.62726563 -1.40007812 5.62953125 -1.31640625 4.6015625 C-1 2 -1 2 0 0 Z " fill="#459DD1" transform="translate(297,256)"/>
<path d="M0 0 C1 2 2 4 3 6 C1.03533587 7.06775224 -0.96855359 8.06553465 -3 9 C-3.66 8.67 -4.32 8.34 -5 8 C-3.35 5.36 -1.7 2.72 0 0 Z " fill="#54A9D8" transform="translate(85,108)"/>
<path d="M0 0 C0.33 1.32 0.66 2.64 1 4 C-1.1875 6.8125 -1.1875 6.8125 -4 9 C-5.32 8.67 -6.64 8.34 -8 8 C-5.36 5.36 -2.72 2.72 0 0 Z " fill="#6FAED7" transform="translate(111,77)"/>
<path d="M0 0 C3.87302138 1.14430177 7.00263439 2.23320098 10 5 C10 5.66 10 6.32 10 7 C7.625 6.6875 7.625 6.6875 5 6 C4.34 5.01 3.68 4.02 3 3 C0.94996045 1.80767387 0.94996045 1.80767387 -1 1 C-0.67 0.67 -0.34 0.34 0 0 Z " fill="#5EA7D4" transform="translate(325,35)"/>
<path d="M0 0 C0.99 0.33 1.98 0.66 3 1 C0.525 5.455 0.525 5.455 -2 10 C-2.66 9.67 -3.32 9.34 -4 9 C-4 8.01 -4 7.02 -4 6 C-3.01 6 -2.02 6 -1 6 C-1.020625 5.195625 -1.04125 4.39125 -1.0625 3.5625 C-1 1 -1 1 0 0 Z " fill="#64B0D6" transform="translate(129,138)"/>
<path d="M0 0 C1.44098611 0.76429661 2.87766054 1.53672555 4.3125 2.3125 C5.11300781 2.74175781 5.91351563 3.17101563 6.73828125 3.61328125 C8.83787272 4.90059554 10.35447721 6.18406708 12 8 C10.35 7.67 8.7 7.34 7 7 C7 6.34 7 5.68 7 5 C5.35 5 3.7 5 2 5 C2 4.01 2 3.02 2 2 C1.34 2 0.68 2 0 2 C0 1.34 0 0.68 0 0 Z " fill="#67AFD7" transform="translate(349,47)"/>
<path d="M0 0 C1.33333333 2 2.66666667 4 4 6 C3.67 7.32 3.34 8.64 3 10 C1.02 7.03 -0.96 4.06 -3 1 C-2.01 0.67 -1.02 0.34 0 0 Z " fill="#5FB3D7" transform="translate(98,338)"/>
<path d="M0 0 C0.66 0 1.32 0 2 0 C1.67 0.99 1.34 1.98 1 3 C0.90752619 4.47686111 0.87000929 5.95775501 0.875 7.4375 C0.87242187 8.19933594 0.86984375 8.96117187 0.8671875 9.74609375 C0.99723985 11.95315859 1.39143801 13.87969276 2 16 C1.34 16 0.68 16 0 16 C-1.43316898 13.13366205 -1.13200361 10.62764499 -1.125 7.4375 C-1.12757813 6.26058594 -1.13015625 5.08367187 -1.1328125 3.87109375 C-1 1 -1 1 0 0 Z " fill="#69A6BB" transform="translate(146,246)"/>
<path d="M0 0 C2.31 0.33 4.62 0.66 7 1 C7.33 2.65 7.66 4.3 8 6 C4.63408134 4.55746343 2.48952921 2.66735273 0 0 Z " fill="#63B4DC" transform="translate(231,466)"/>
<path d="M0 0 C0.99 0.33 1.98 0.66 3 1 C2.34 2.32 1.68 3.64 1 5 C-0.32 5 -1.64 5 -3 5 C-3.33 5.66 -3.66 6.32 -4 7 C-4 5.68 -4 4.36 -4 3 C-2.1875 1.1875 -2.1875 1.1875 0 0 Z " fill="#52A7D4" transform="translate(381,363)"/>
<path d="M0 0 C0.99 0 1.98 0 3 0 C3 0.66 3 1.32 3 2 C3.66 2 4.32 2 5 2 C5.33 3.98 5.66 5.96 6 8 C2.24623848 6.74874616 1.75926711 5.4347596 0 2 C0 1.34 0 0.68 0 0 Z " fill="#48A3CF" transform="translate(80,316)"/>
<path d="M0 0 C4.95696581 1.23924145 7.11658466 2.78577758 10 7 C9.67 7.66 9.34 8.32 9 9 C7 7.625 7 7.625 5 6 C5 5.34 5 4.68 5 4 C4.34 4 3.68 4 3 4 C3 3.34 3 2.68 3 2 C2.01 1.67 1.02 1.34 0 1 C0 0.67 0 0.34 0 0 Z " fill="#72B5D7" transform="translate(342,110)"/>
<path d="M0 0 C1.65 0 3.3 0 5 0 C5 1.65 5 3.3 5 5 C3.02 4.34 1.04 3.68 -1 3 C-0.67 2.01 -0.34 1.02 0 0 Z " fill="#4DA7D7" transform="translate(318,91)"/>
<path d="M0 0 C3.36720387 1.39332574 4.9859524 2.9789286 7 6 C6.67 6.66 6.34 7.32 6 8 C5.34 7.67 4.68 7.34 4 7 C4 6.34 4 5.68 4 5 C3.01 5 2.02 5 1 5 C0.67 3.35 0.34 1.7 0 0 Z " fill="#4FA2CE" transform="translate(386,76)"/>
<path d="M0 0 C4.82360189 -0.19294408 8.49646738 0.24252386 13 2 C12.67 2.66 12.34 3.32 12 4 C7.91621717 3.25749403 3.98060777 2.17076699 0 1 C0 0.67 0 0.34 0 0 Z " fill="#61B1D7" transform="translate(291,82)"/>
<path d="M0 0 C-1.50223584 4.20626034 -4.28550034 5.73900021 -8 8 C-8 7.01 -8 6.02 -8 5 C-7.34 5 -6.68 5 -6 5 C-6 4.34 -6 3.68 -6 3 C-3.89994105 0.39992701 -3.48266577 0 0 0 Z " fill="#6DB8D7" transform="translate(315,429)"/>
<path d="M0 0 C1.65 0 3.3 0 5 0 C1.375 4.875 1.375 4.875 -2 6 C-2.33 5.01 -2.66 4.02 -3 3 C-2.01 2.67 -1.02 2.34 0 2 C0 1.34 0 0.68 0 0 Z " fill="#60AFDB" transform="translate(325,417)"/>
<path d="M0 0 C0.66 0.33 1.32 0.66 2 1 C-0.86536704 5.07763771 -3.43041625 7.02677065 -8 9 C-6.86280581 5.58841744 -5.95657056 4.88145399 -3 3 C-2.34 3 -1.68 3 -1 3 C-0.67 2.01 -0.34 1.02 0 0 Z " fill="#3399D9" transform="translate(332,343)"/>
<path d="M0 0 C0.66 1.32 1.32 2.64 2 4 C2.66 4 3.32 4 4 4 C4.99 5.98 5.98 7.96 7 10 C6.01 10 5.02 10 4 10 C3.67 8.35 3.34 6.7 3 5 C2.01 5 1.02 5 0 5 C0 3.35 0 1.7 0 0 Z " fill="#76B5D9" transform="translate(129,302)"/>
<path d="M0 0 C0.66 0 1.32 0 2 0 C1.67 2.97 1.34 5.94 1 9 C0.34 8.67 -0.32 8.34 -1 8 C-1.04241723 5.66705225 -1.04092937 3.33297433 -1 1 C-0.67 0.67 -0.34 0.34 0 0 Z " fill="#5CACD8" transform="translate(444,248)"/>
<path d="M0 0 C0.33 0.66 0.66 1.32 1 2 C1.66 2 2.32 2 3 2 C4.2890625 3.53125 4.2890625 3.53125 5.625 5.5 C6.07101562 6.1496875 6.51703125 6.799375 6.9765625 7.46875 C7.48316406 8.22671875 7.48316406 8.22671875 8 9 C7.01 9 6.02 9 5 9 C5 8.34 5 7.68 5 7 C4.01 6.67 3.02 6.34 2 6 C2 5.34 2 4.68 2 4 C1.34 4 0.68 4 0 4 C0 2.68 0 1.36 0 0 Z " fill="#67AED5" transform="translate(322,192)"/>
<path d="M0 0 C0.66 0 1.32 0 2 0 C2 2.31 2 4.62 2 7 C1.01 7 0.02 7 -1 7 C-1.33 7.99 -1.66 8.98 -2 10 C-1.46274105 6.62294375 -0.88935377 3.303314 0 0 Z " fill="#66AFDB" transform="translate(61,157)"/>
<path d="M0 0 C1.32 0.66 2.64 1.32 4 2 C1.03 4.475 1.03 4.475 -2 7 C-2 5.35 -2 3.7 -2 2 C-1.34 2 -0.68 2 0 2 C0 1.34 0 0.68 0 0 Z " fill="#479ED1" transform="translate(147,115)"/>
<path d="M0 0 C3.3 0.99 6.6 1.98 10 3 C9.67 3.99 9.34 4.98 9 6 C5.06326356 4.68775452 2.77280706 3.08089673 0 0 Z " fill="#67AED2" transform="translate(242,474)"/>
<path d="M0 0 C0.33 1.32 0.66 2.64 1 4 C-1.3125 5.5625 -1.3125 5.5625 -4 7 C-4.99 6.67 -5.98 6.34 -7 6 C-4.69 4.02 -2.38 2.04 0 0 Z " fill="#54A9D3" transform="translate(348,329)"/>
<path d="M0 0 C1.32 0.33 2.64 0.66 4 1 C4 5.29 4 9.58 4 14 C3.67 14 3.34 14 3 14 C2.92652344 12.98679687 2.92652344 12.98679687 2.8515625 11.953125 C2.77679688 11.06109375 2.70203125 10.1690625 2.625 9.25 C2.55539062 8.36828125 2.48578125 7.4865625 2.4140625 6.578125 C2.00149945 4.00933618 1.28839043 2.24158985 0 0 Z " fill="#66A1C2" transform="translate(351,246)"/>
<path d="M0 0 C0.66 0 1.32 0 2 0 C2 0.66 2 1.32 2 2 C2.66 2 3.32 2 4 2 C4.33 4.97 4.66 7.94 5 11 C2.77174356 8.77174356 2.30760631 7.34238372 1.375 4.375 C1.11460937 3.55773437 0.85421875 2.74046875 0.5859375 1.8984375 C0.39257812 1.27195313 0.19921875 0.64546875 0 0 Z " fill="#60A9D4" transform="translate(327,247)"/>
<path d="M0 0 C0.66 0 1.32 0 2 0 C1.67 3.3 1.34 6.6 1 10 C0.34 9.67 -0.32 9.34 -1 9 C-0.67 6.03 -0.34 3.06 0 0 Z " fill="#62B0D7" transform="translate(57,171)"/>
<path d="M0 0 C0.33 1.32 0.66 2.64 1 4 C-0.98 4.99 -0.98 4.99 -3 6 C-3.33 4.35 -3.66 2.7 -4 1 C-2 0 -2 0 0 0 Z " fill="#48A7DF" transform="translate(296,442)"/>
<path d="M0 0 C3.77545388 1.09068668 6.47043472 1.9083091 9 5 C5.625 4.75 5.625 4.75 2 4 C0.5625 1.9375 0.5625 1.9375 0 0 Z " fill="#50A5D3" transform="translate(192,357)"/>
<path d="M0 0 C2.97 0.33 5.94 0.66 9 1 C9 4 9 4 8 6 C7.236875 5.38125 6.47375 4.7625 5.6875 4.125 C3.00374191 1.94402948 3.00374191 1.94402948 0 0 Z " fill="#67AED6" transform="translate(196,242)"/>
<path d="M0 0 C4.62 0.66 9.24 1.32 14 2 C14 2.33 14 2.66 14 3 C9.71 3 5.42 3 1 3 C0.67 2.01 0.34 1.02 0 0 Z " fill="#73B4D9" transform="translate(287,216)"/>
<path d="M0 0 C1 4 1 4 0 7 C-1.65 7 -3.3 7 -5 7 C-3.35 4.69 -1.7 2.38 0 0 Z " fill="#6EB5DE" transform="translate(102,86)"/>
<path d="M0 0 C2.64 0 5.28 0 8 0 C8.33 0.66 8.66 1.32 9 2 C5.67465243 3.10844919 3.37817425 2.84454356 0 2 C0 1.34 0 0.68 0 0 Z " fill="#59A9D3" transform="translate(284,79)"/>
<path d="M0 0 C0.66 0.33 1.32 0.66 2 1 C0.71937515 2.7074998 -0.61767557 4.37373596 -2 6 C-2.66 6 -3.32 6 -4 6 C-4.33 5.01 -4.66 4.02 -5 3 C-2.625 1.4375 -2.625 1.4375 0 0 Z " fill="#2D9ADA" transform="translate(121,71)"/>
<path d="M0 0 C3.91402949 1.26941497 5.79072873 2.51167694 8 6 C5 6 5 6 3.61328125 4.6875 C2.40885417 3.125 1.20442708 1.5625 0 0 Z " fill="#55A5D3" transform="translate(144,393)"/>
<path d="M0 0 C0.99 0 1.98 0 3 0 C1.60667426 3.36720387 0.0210714 4.9859524 -3 7 C-2.38722388 4.03824877 -1.74627478 2.61941217 0 0 Z " fill="#64B1D5" transform="translate(387,357)"/>
<path d="M0 0 C1.98 0 3.96 0 6 0 C6 0.66 6 1.32 6 2 C4.02 2.66 2.04 3.32 0 4 C0 2.68 0 1.36 0 0 Z " fill="#5AA6D3" transform="translate(194,274)"/>
<path d="M0 0 C2.14210449 1.76956458 2.96060573 2.87575652 3.8125 5.5625 C3.874375 6.366875 3.93625 7.17125 4 8 C3.34 8.66 2.68 9.32 2 10 C0.68373308 6.38026598 0 3.90432869 0 0 Z " fill="#64AAD4" transform="translate(425,127)"/>
<path d="M0 0 C-0.25 1.875 -0.25 1.875 -1 4 C-3.0625 5.25 -3.0625 5.25 -5 6 C-4.625 3.5625 -4.625 3.5625 -4 1 C-2 0 -2 0 0 0 Z " fill="#349BD5" transform="translate(84,116)"/>
<path d="M0 0 C-2.31 1.65 -4.62 3.3 -7 5 C-6.67 3.35 -6.34 1.7 -6 0 C-3 -1 -3 -1 0 0 Z " fill="#66B4D4" transform="translate(163,107)"/>
<path d="M0 0 C0 0.66 0 1.32 0 2 C0.66 2.33 1.32 2.66 2 3 C-1.63 2.34 -5.26 1.68 -9 1 C-4.82091936 -1.08954032 -4.19589427 -1.16552619 0 0 Z " fill="#429DD4" transform="translate(297,26)"/>
<path d="M0 0 C2.31 0.66 4.62 1.32 7 2 C6.67 2.99 6.34 3.98 6 5 C1.125 2.25 1.125 2.25 0 0 Z " fill="#5CA9D6" transform="translate(222,459)"/>
<path d="M0 0 C2.475 0.495 2.475 0.495 5 1 C5 1.66 5 2.32 5 3 C5.66 3 6.32 3 7 3 C6.67 3.99 6.34 4.98 6 6 C3.97945196 4.35830472 1.97956942 2.69088222 0 1 C0 0.67 0 0.34 0 0 Z " fill="#69B4DB" transform="translate(179,425)"/>
<path d="M0 0 C0.66 0.33 1.32 0.66 2 1 C-0.25 3.5625 -0.25 3.5625 -3 6 C-5.3125 5.8125 -5.3125 5.8125 -7 5 C-2.25 2 -2.25 2 0 2 C0 1.34 0 0.68 0 0 Z " fill="#78BDDF" transform="translate(330,343)"/>
<path d="M0 0 C1.88391785 3.26545761 2.49287967 6.28111761 3 10 C0.9375 7.8125 0.9375 7.8125 -1 5 C-0.75 2.1875 -0.75 2.1875 0 0 Z " fill="#6BB1D8" transform="translate(70,294)"/>
<path d="M0 0 C0.33 0 0.66 0 1 0 C1.125 2.875 1.125 2.875 1 6 C0.34 6.66 -0.32 7.32 -1 8 C-1.625 5.6875 -1.625 5.6875 -2 3 C-1.34 2.01 -0.68 1.02 0 0 Z " fill="#4BA5D4" transform="translate(169,249)"/>
<path d="M0 0 C2.475 0.495 2.475 0.495 5 1 C5.12375 1.639375 5.2475 2.27875 5.375 2.9375 C5.684375 3.9584375 5.684375 3.9584375 6 5 C6.66 5.33 7.32 5.66 8 6 C5 6 5 6 3.61328125 4.6875 C2.40885417 3.125 1.20442708 1.5625 0 0 Z " fill="#69B3D5" transform="translate(298,183)"/>
<path d="M0 0 C0.77321882 2.98241547 1.41196203 5.97580475 2 9 C1.01 9 0.02 9 -1 9 C-1.80967438 6.08517222 -2.21845993 4.53886783 -1.0625 1.6875 C-0.711875 1.130625 -0.36125 0.57375 0 0 Z " fill="#459FD8" transform="translate(60,164)"/>
<path d="M0 0 C0.33 0.66 0.66 1.32 1 2 C1.99 1.67 2.98 1.34 4 1 C3.34 2.32 2.68 3.64 2 5 C1.34 5 0.68 5 0 5 C-0.33 5.66 -0.66 6.32 -1 7 C-0.67 4.69 -0.34 2.38 0 0 Z " fill="#59AADC" transform="translate(64,149)"/>
<path d="" fill="#FFFFFF" transform="translate(0,0)"/>
<path d="" fill="#FFFFFF" transform="translate(0,0)"/>
<path d="" fill="#FFFFFF" transform="translate(0,0)"/>
<path d="" fill="#FFFFFF" transform="translate(0,0)"/>
<path d="" fill="#FFFFFF" transform="translate(0,0)"/>
<path d="" fill="#FFFFFF" transform="translate(0,0)"/>
<path d="" fill="#FFFFFF" transform="translate(0,0)"/>
<path d="" fill="#FFFFFF" transform="translate(0,0)"/>
<path d="" fill="#FFFFFF" transform="translate(0,0)"/>
<path d="" fill="#FFFFFF" transform="translate(0,0)"/>
<path d="" fill="#FFFFFF" transform="translate(0,0)"/>
<path d="" fill="#FFFFFF" transform="translate(0,0)"/>
<path d="" fill="#FFFFFF" transform="translate(0,0)"/>
<path d="" fill="#FFFFFF" transform="translate(0,0)"/>
<path d="" fill="#FFFFFF" transform="translate(0,0)"/>
<path d="" fill="#FFFFFF" transform="translate(0,0)"/>
<path d="" fill="#FFFFFF" transform="translate(0,0)"/>
<path d="" fill="#FFFFFF" transform="translate(0,0)"/>
<path d="" fill="#FFFFFF" transform="translate(0,0)"/>
<path d="" fill="#FFFFFF" transform="translate(0,0)"/>
<path d="" fill="#FFFFFF" transform="translate(0,0)"/>
<path d="" fill="#FFFFFF" transform="translate(0,0)"/>
<path d="" fill="#FFFFFF" transform="translate(0,0)"/>
<path d="" fill="#FFFFFF" transform="translate(0,0)"/>
<path d="" fill="#FFFFFF" transform="translate(0,0)"/>
<path d="" fill="#FFFFFF" transform="translate(0,0)"/>
<path d="" fill="#FFFFFF" transform="translate(0,0)"/>
<path d="" fill="#FFFFFF" transform="translate(0,0)"/>
<path d="" fill="#FFFFFF" transform="translate(0,0)"/>
<path d="" fill="#FFFFFF" transform="translate(0,0)"/>
<path d="" fill="#FFFFFF" transform="translate(0,0)"/>
<path d="" fill="#FFFFFF" transform="translate(0,0)"/>
<path d="" fill="#FFFFFF" transform="translate(0,0)"/>
<path d="" fill="#FFFFFF" transform="translate(0,0)"/>
<path d="" fill="#FFFFFF" transform="translate(0,0)"/>
<path d="" fill="#FFFFFF" transform="translate(0,0)"/>
<path d="" fill="#FFFFFF" transform="translate(0,0)"/>
<path d="" fill="#FFFFFF" transform="translate(0,0)"/>
<path d="" fill="#FFFFFF" transform="translate(0,0)"/>
<path d="" fill="#FFFFFF" transform="translate(0,0)"/>
<path d="" fill="#FFFFFF" transform="translate(0,0)"/>
<path d="" fill="#FFFFFF" transform="translate(0,0)"/>
<path d="" fill="#FFFFFF" transform="translate(0,0)"/>
<path d="" fill="#FFFFFF" transform="translate(0,0)"/>
<path d="" fill="#FFFFFF" transform="translate(0,0)"/>
<path d="" fill="#FFFFFF" transform="translate(0,0)"/>
<path d="" fill="#FFFFFF" transform="translate(0,0)"/>
<path d="" fill="#FFFFFF" transform="translate(0,0)"/>
<path d="" fill="#FFFFFF" transform="translate(0,0)"/>
<path d="" fill="#FFFFFF" transform="translate(0,0)"/>
<path d="" fill="#FFFFFF" transform="translate(0,0)"/>
<path d="" fill="#FFFFFF" transform="translate(0,0)"/>
<path d="" fill="#FFFFFF" transform="translate(0,0)"/>
<path d="" fill="#FFFFFF" transform="translate(0,0)"/>
<path d="" fill="#FFFFFF" transform="translate(0,0)"/>
<path d="" fill="#FFFFFF" transform="translate(0,0)"/>
<path d="" fill="#FFFFFF" transform="translate(0,0)"/>
</svg>
